<svg xmlns="http://www.w3.org/2000/svg" width="1123" height="794" stroke="#000" stroke-linecap="round" stroke-linejoin="round" fill="#fff" fill-rule="evenodd"><path d="M666 396v-80c0-51-31-97-78-116-7-20-26-35-48-35s-41 15-47 35c-46 18-79 63-79 116v80c0 6-2 13-7 17l-18 18v61h108c9 15 25 25 43 25 19 0 35-10 43-25h108v-61l-18-18c-5-4-7-11-7-17zM356 261c-11 25-17 52-17 80s6 55 17 80l23-10c-10-22-15-46-15-70s5-48 15-70l-23-10zm368 0l-23 10c10 22 15 46 15 70s-5 48-15 70l23 10c12-25 17-52 17-80s-5-55-17-80z" stroke="none" fill-rule="nonzero"/></svg>