<svg xmlns="http://www.w3.org/2000/svg" height="512" viewBox="0 0 16 16" width="512" fill="#fff"><path d="M11.928 9.706V7.214a3.93 3.93 0 0 0-2.443-3.632C9.278 2.956 8.695 2.5 8 2.5s-1.278.456-1.485 1.082c-1.43.587-2.443 1.992-2.443 3.632v2.492a.79.79 0 0 1-.23.555l-.555.555v1.897h3.36c.273.467.774.786 1.353.786s1.08-.318 1.353-.786h3.36v-1.897l-.555-.555c-.148-.15-.23-.346-.23-.556zM2.24 5.486A6.24 6.24 0 0 0 1.715 8a6.24 6.24 0 0 0 .526 2.514l.72-.315A5.46 5.46 0 0 1 2.5 8a5.46 5.46 0 0 1 .46-2.2l-.72-.315zm11.52 0l-.72.315A5.46 5.46 0 0 1 13.5 8a5.46 5.46 0 0 1-.46 2.2l.72.315A6.24 6.24 0 0 0 14.285 8a6.24 6.24 0 0 0-.526-2.514z"/></svg>