<?xml version="1.0" encoding="UTF-8" standalone="no"?>
<!DOCTYPE svg PUBLIC "-//W3C//DTD SVG 1.1//EN" "http://www.w3.org/Graphics/SVG/1.1/DTD/svg11.dtd">
<svg version="1.1" xmlns="http://www.w3.org/2000/svg" xmlns:xlink="http://www.w3.org/1999/xlink" preserveAspectRatio="xMidYMid meet" viewBox="0 0 640 640" width="50" height="50"><defs><path d="M599.19 32.52C614.5 32.52 626.9 44.93 626.9 60.23C626.9 171.91 626.9 479.24 626.9 590.92C626.9 606.23 614.5 618.63 599.19 618.63C483.08 618.63 162.45 618.63 46.33 618.63C31.03 618.63 18.62 606.23 18.62 590.92C18.62 479.24 18.62 171.91 18.62 60.23C18.62 44.93 31.03 32.52 46.33 32.52C162.45 32.52 483.08 32.52 599.19 32.52Z" id="c9EoWqbc"></path><path d="M408.86 385.35C416.38 385.35 422.47 391.45 422.47 398.96C422.47 429.35 422.47 506.92 422.47 537.31C422.47 544.83 416.38 550.92 408.86 550.92C362.5 550.92 237.04 550.92 190.68 550.92C183.17 550.92 177.08 544.83 177.08 537.31C177.08 506.92 177.08 429.35 177.08 398.96C177.08 391.45 183.17 385.35 190.68 385.35C237.04 385.35 362.5 385.35 408.86 385.35Z" id="e2QN9EuyOW"></path><path d="M422.47 409.53C422.47 477.25 367.49 532.22 299.77 532.22C232.05 532.22 177.08 477.25 177.08 409.53C177.08 341.81 232.05 286.83 299.77 286.83C367.49 286.83 422.47 341.81 422.47 409.53Z" id="amjP0nw0D"></path><path d="M387.73 257.49C387.73 306.03 348.32 345.44 299.77 345.44C251.23 345.44 211.82 306.03 211.82 257.49C211.82 208.94 251.23 169.53 299.77 169.53C348.32 169.53 387.73 208.94 387.73 257.49Z" id="bYZjtJeoy"></path><path d="M572.52 409.64C578.94 409.64 584.13 414.84 584.13 421.25C584.13 447.19 584.13 513.38 584.13 539.31C584.13 545.72 578.94 550.92 572.52 550.92C532.97 550.92 425.91 550.92 386.35 550.92C379.94 550.92 374.74 545.72 374.74 539.31C374.74 513.38 374.74 447.19 374.74 421.25C374.74 414.84 379.94 409.64 386.35 409.64C425.91 409.64 532.97 409.64 572.52 409.64Z" id="eSjti4Agn"></path><path d="M584.13 430.27C584.13 488.05 537.22 534.97 479.44 534.97C421.66 534.97 374.74 488.05 374.74 430.27C374.74 372.49 421.66 325.58 479.44 325.58C537.22 325.58 584.13 372.49 584.13 430.27Z" id="akj4HWrXQ"></path><path d="M554.49 300.53C554.49 341.96 520.86 375.59 479.44 375.59C438.02 375.59 404.39 341.96 404.39 300.53C404.39 259.11 438.02 225.48 479.44 225.48C520.86 225.48 554.49 259.11 554.49 300.53Z" id="dlJO3v8o"></path><path d="M240.59 426.7C246.23 426.7 250.8 431.27 250.8 436.91C250.8 459.71 250.8 517.91 250.8 540.71C250.8 546.35 246.23 550.92 240.59 550.92C205.81 550.92 111.68 550.92 76.9 550.92C71.26 550.92 66.69 546.35 66.69 540.71C66.69 517.91 66.69 459.71 66.69 436.91C66.69 431.27 71.26 426.7 76.9 426.7C111.68 426.7 205.81 426.7 240.59 426.7Z" id="b1aZrpLjre"></path><path d="M250.8 444.84C250.8 495.64 209.55 536.89 158.74 536.89C107.94 536.89 66.69 495.64 66.69 444.84C66.69 394.03 107.94 352.78 158.74 352.78C209.55 352.78 250.8 394.03 250.8 444.84Z" id="d75ufbdgR"></path><path d="M224.74 330.76C224.74 367.18 195.17 396.75 158.74 396.75C122.32 396.75 92.75 367.18 92.75 330.76C92.75 294.34 122.32 264.77 158.74 264.77C195.17 264.77 224.74 294.34 224.74 330.76Z" id="bE2UlotLL"></path></defs><g><g><g><use xlink:href="#c9EoWqbc" opacity="1" fill="#558c8c" fill-opacity="1"></use></g><g><use xlink:href="#e2QN9EuyOW" opacity="1" fill="#dcab6b" fill-opacity="1"></use></g><g><use xlink:href="#amjP0nw0D" opacity="1" fill="#dcab6b" fill-opacity="1"></use></g><g><use xlink:href="#bYZjtJeoy" opacity="1" fill="#ffffff" fill-opacity="1"></use></g><g><use xlink:href="#eSjti4Agn" opacity="1" fill="#903289" fill-opacity="1"></use></g><g><use xlink:href="#akj4HWrXQ" opacity="1" fill="#903289" fill-opacity="1"></use></g><g><use xlink:href="#dlJO3v8o" opacity="1" fill="#ffffff" fill-opacity="1"></use></g><g><use xlink:href="#b1aZrpLjre" opacity="1" fill="#6e0d25" fill-opacity="1"></use></g><g><use xlink:href="#d75ufbdgR" opacity="1" fill="#6e0d25" fill-opacity="1"></use></g><g><use xlink:href="#bE2UlotLL" opacity="1" fill="#ffffff" fill-opacity="1"></use></g></g></g></svg>