<?xml version="1.0" encoding="UTF-8" standalone="no"?>
<!DOCTYPE svg PUBLIC "-//W3C//DTD SVG 1.1//EN" "http://www.w3.org/Graphics/SVG/1.1/DTD/svg11.dtd">
<svg version="1.1" xmlns="http://www.w3.org/2000/svg" xmlns:xlink="http://www.w3.org/1999/xlink" preserveAspectRatio="xMidYMid meet" viewBox="0 0 640 640" width="50" height="50"><defs><path d="M571.99 66C585.68 66 596.77 77.09 596.77 90.78C596.77 157.08 596.77 331.18 596.77 397.48C596.77 411.16 585.68 422.26 571.99 422.26C468.15 422.26 181.4 422.26 77.55 422.26C63.87 422.26 52.77 411.16 52.77 397.48C52.77 331.18 52.77 157.08 52.77 90.78C52.77 77.09 63.87 66 77.55 66C181.4 66 468.15 66 571.99 66Z" id="c20IXESAW"></path><path d="M433.86 422.26C441.38 422.26 447.47 428.35 447.47 435.87C447.47 466.26 447.47 543.83 447.47 574.22C447.47 581.73 441.38 587.82 433.86 587.82C387.5 587.82 262.04 587.82 215.68 587.82C208.17 587.82 202.08 581.73 202.08 574.22C202.08 543.83 202.08 466.26 202.08 435.87C202.08 428.35 208.17 422.26 215.68 422.26C262.04 422.26 387.5 422.26 433.86 422.26Z" id="a2ATYSalK"></path><path d="M447.47 446.43C447.47 514.15 392.49 569.13 324.77 569.13C257.05 569.13 202.08 514.15 202.08 446.43C202.08 378.72 257.05 323.74 324.77 323.74C392.49 323.74 447.47 378.72 447.47 446.43Z" id="bEPs0dp7z"></path><path d="M412.73 294.39C412.73 342.93 373.32 382.35 324.77 382.35C276.23 382.35 236.82 342.93 236.82 294.39C236.82 245.85 276.23 206.43 324.77 206.43C373.32 206.43 412.73 245.85 412.73 294.39Z" id="j2yGVYPlWI"></path></defs><g><g><g><use xlink:href="#c20IXESAW" opacity="1" fill="#2eb01e" fill-opacity="1"></use></g><g><use xlink:href="#a2ATYSalK" opacity="1" fill="#246bd1" fill-opacity="1"></use></g><g><use xlink:href="#bEPs0dp7z" opacity="1" fill="#246bd1" fill-opacity="1"></use></g><g><use xlink:href="#j2yGVYPlWI" opacity="1" fill="#ffffff" fill-opacity="1"></use></g></g></g></svg>