<svg xmlns="http://www.w3.org/2000/svg" width="512" height="512"><path d="M255.15 468.625H63.787c-11.737 0-21.262-9.526-21.262-21.262V64.638c0-11.737 9.526-21.262 21.262-21.262H255.15c11.758 0 21.262-9.504 21.262-21.262S266.908.85 255.15.85H63.787C28.62.85 0 29.47 0 64.638v382.724c0 35.168 28.62 63.787 63.787 63.787H255.15c11.758 0 21.262-9.504 21.262-21.262s-9.504-21.262-21.262-21.262zM505.664 240.86L376.388 113.286c-8.335-8.25-21.815-8.143-30.065.213s-8.165 21.815.213 30.065l92.385 91.173H191.36c-11.758 0-21.262 9.504-21.262 21.262s9.504 21.263 21.262 21.263h247.56l-92.385 91.173c-8.377 8.25-8.44 21.7-.213 30.065 4.167 4.2 9.653 6.336 15.14 6.336 5.4 0 10.8-2.04 14.926-6.124l129.276-127.575c4.04-3.997 6.336-9.44 6.336-15.14s-2.275-11.118-6.336-15.137z" transform="matrix(-.494839 0 0 .494839 382.679 129.321)" fill="#fff"/></svg>