<svg xmlns="http://www.w3.org/2000/svg" xmlns:xlink="http://www.w3.org/1999/xlink" preserveAspectRatio="xMidYMid meet" width="640" height="640"><defs><path d="M287.48 72.94c11.3 0 20.44 9.15 20.44 20.45v200.06c0 11.3-9.15 20.44-20.44 20.44H87.42c-11.3 0-20.45-9.15-20.45-20.44V93.4c0-11.3 9.15-20.45 20.45-20.45h200.06z" id="A"/><path d="M549.5 75.85c11.3 0 20.45 9.15 20.45 20.44v200.07c0 11.3-9.16 20.44-20.45 20.44H349.44c-11.3 0-20.44-9.15-20.44-20.44V96.3c0-11.3 9.15-20.44 20.44-20.44H549.5z" id="B"/><path d="M289.5 335.62c11.3 0 20.44 9.15 20.44 20.44v200.06c0 11.3-9.15 20.45-20.44 20.45H89.43c-11.3 0-20.45-9.16-20.45-20.45V356.06c0-11.3 9.15-20.44 20.45-20.44H289.5z" id="C"/><path d="M549.5 335.62c11.3 0 20.45 9.15 20.45 20.44v200.06a20.46 20.46 0 0 1-20.45 20.45H349.44c-11.3 0-20.44-9.16-20.44-20.45V356.06c0-11.3 9.15-20.44 20.44-20.44H549.5z" id="D"/><path d="M193.83 131.3a11.93 11.93 0 0 1 11.93 11.93V249.4a11.93 11.93 0 0 1-11.93 11.93c-2.38 0 2.4 0 0 0a11.93 11.93 0 0 1-11.93-11.93V143.24a11.93 11.93 0 0 1 11.93-11.93c2.4 0-2.38 0 0 0z" id="E"/><path d="M200.42 146.7a4.71 4.71 0 0 1-.11 6.66l-30.16 29.16a4.72 4.72 0 0 1-6.66-.12l-10.03-10.37a4.72 4.72 0 0 1 .11-6.67l30.15-29.15a4.71 4.71 0 0 1 6.66.11l10.04 10.38z" id="F"/><path d="M461.48 131.3a11.93 11.93 0 0 1 11.93 11.93V249.4a11.93 11.93 0 0 1-11.93 11.93c-2.38 0 2.4 0 0 0-6.58 0-11.93-5.34-11.93-11.93V143.24c0-6.6 5.35-11.93 11.93-11.93 2.4 0-2.38 0 0 0z" id="G"/><path d="M466.8 136.37c3.95 2.53 5.1 7.78 2.57 11.72l-40.78 63.6a8.49 8.49 0 0 1-11.72 2.56l-5.8-3.7a8.5 8.5 0 0 1-2.56-11.73l40.77-63.6a8.49 8.49 0 0 1 11.73-2.57l5.8 3.72z" id="H"/><path d="M493.8 209a7.95 7.95 0 0 1-7.79 8.09l-70.68 1.33a7.93 7.93 0 0 1-8.09-7.79l-.15-7.97c-.08-4.4 3.4-8 7.8-8.1l70.68-1.34a7.95 7.95 0 0 1 8.09 7.8l.15 7.97z" id="I"/><path d="M243.8 396.57a11.93 11.93 0 0 1 11.93 11.93v106.18c0 6.58-5.34 11.93-11.93 11.93-2.4 0 2.38 0 0 0-6.6 0-11.93-5.35-11.93-11.93V408.5a11.93 11.93 0 0 1 11.93-11.93c2.38 0-2.4 0 0 0z" id="J"/><path d="M249.13 401.63a8.5 8.5 0 0 1 2.56 11.73l-40.77 63.6a8.49 8.49 0 0 1-11.73 2.57l-5.8-3.72a8.49 8.49 0 0 1-2.57-11.73l40.78-63.6c2.53-3.95 7.78-5.1 11.72-2.57l5.8 3.72z" id="K"/><path d="M276.12 474.26a7.93 7.93 0 0 1-7.79 8.09l-70.68 1.34c-4.38.08-8-3.4-8.1-7.8l-.15-7.97a7.95 7.95 0 0 1 7.79-8.09l70.68-1.33a7.93 7.93 0 0 1 8.09 7.79l.15 7.97z" id="L"/><path d="M159.92 396.57a11.93 11.93 0 0 1 11.93 11.93v106.18c0 6.58-5.34 11.93-11.93 11.93-2.38 0 2.4 0 0 0-6.6 0-11.93-5.35-11.93-11.93V408.5a11.93 11.93 0 0 1 11.93-11.93c2.4 0-2.38 0 0 0z" id="M"/><path d="M166.5 411.96c1.8 1.88 1.76 4.86-.12 6.67l-30.15 29.15a4.71 4.71 0 0 1-6.66-.11l-10.03-10.38a4.72 4.72 0 0 1 .11-6.67l30.15-29.15a4.72 4.72 0 0 1 6.66.12l10.04 10.37z" id="N"/><path d="M421.97 387.03a11.93 11.93 0 0 1 11.93 11.93v106.17a11.93 11.93 0 0 1-11.93 11.93c-2.38 0 2.4 0 0 0a11.93 11.93 0 0 1-11.93-11.93V398.96a11.93 11.93 0 0 1 11.93-11.93c2.4 0-2.38 0 0 0z" id="O"/><path d="M428.56 402.42a4.71 4.71 0 0 1-.11 6.66l-30.16 29.15a4.71 4.71 0 0 1-6.66-.11l-10.03-10.38a4.71 4.71 0 0 1 .11-6.66l30.15-29.15a4.71 4.71 0 0 1 6.66.11l10.04 10.38z" id="P"/><path d="M493.06 387.03a11.93 11.93 0 0 1 11.93 11.93v106.17a11.93 11.93 0 0 1-11.93 11.93c-2.38 0 2.4 0 0 0a11.93 11.93 0 0 1-11.93-11.93V398.96a11.93 11.93 0 0 1 11.93-11.93c2.4 0-2.38 0 0 0z" id="Q"/><path d="M499.65 402.42a4.7 4.7 0 0 1-.12 6.66l-30.15 29.15a4.71 4.71 0 0 1-6.66-.11l-10.03-10.38a4.71 4.71 0 0 1 .11-6.66l30.15-29.15a4.71 4.71 0 0 1 6.66.11l10.04 10.38z" id="R"/></defs><use xlink:href="#A" fill="#0ed0ed"/><use xlink:href="#B" fill="#0eed0e"/><use xlink:href="#C" fill="#7c16bc"/><use xlink:href="#D" fill="#ed5a0e"/><g fill="#fefefe"><use xlink:href="#E"/><use xlink:href="#F"/></g><use xlink:href="#G" fill-opacity="0" stroke="#000"/><g fill="#fefefe"><use xlink:href="#G"/><use xlink:href="#H"/><use xlink:href="#I"/></g><use xlink:href="#K" fill-opacity="0" stroke="#000"/><g fill="#fefefe"><use xlink:href="#J"/><use xlink:href="#K"/><use xlink:href="#L"/><use xlink:href="#M"/><use xlink:href="#N"/><use xlink:href="#O"/><use xlink:href="#P"/><use xlink:href="#Q"/><use xlink:href="#R"/></g></svg>