<svg xmlns="http://www.w3.org/2000/svg" xmlns:xlink="http://www.w3.org/1999/xlink" preserveAspectRatio="xMidYMid meet" width="640" height="640"><style><![CDATA[.B{fill-opacity:0}.C{stroke:#000}.D{stroke-opacity:0}.E{fill:#d16934}.F{fill:#e4e4e4}]]></style><defs><path d="M565.2 155.05v379.5c0 6.1-4.94 11.04-11.03 11.04H94.64a11.04 11.04 0 0 1-11.05-11.04v-379.5a11.04 11.04 0 0 1 11.05-11.04h459.54c6.1 0 11.03 4.94 11.03 11.04z" id="A"/><path d="M268.4 300.37v64.13c0 9.3-4.4 16.85-9.8 16.85h-37.2c-5.4 0-9.78-7.55-9.78-16.85v-64.13c0-9.32 4.37-16.85 9.78-16.85h37.2c5.4 0 9.8 7.53 9.8 16.85z" id="B"/><path d="M517.84 413.38v64.12c0 9.3-4.38 16.85-9.8 16.85h-37.2c-5.4 0-9.78-7.55-9.78-16.85v-64.12c0-9.33 4.38-16.86 9.78-16.86h37.2c5.4 0 9.8 7.53 9.8 16.86z" id="C"/><path d="M187.76 413.38v64.12c0 9.3-4.38 16.85-9.78 16.85h-37.22c-5.4 0-9.78-7.55-9.78-16.85v-64.12c0-9.33 4.37-16.86 9.78-16.86h37.22c5.4 0 9.78 7.53 9.78 16.86z" id="D"/><path d="M355.88 102.5v97.4c0 4.46-3.62 8.08-8.08 8.08h-46.78c-4.46 0-8.08-3.62-8.08-8.08v-97.4c0-4.46 3.62-8.08 8.08-8.08h46.78c4.46 0 8.08 3.62 8.08 8.08z" id="E"/><path d="M505.2 102.5v97.4a8.08 8.08 0 0 1-8.08 8.08h-46.77a8.08 8.08 0 0 1-8.08-8.08v-97.4a8.08 8.08 0 0 1 8.08-8.08h46.77a8.08 8.08 0 0 1 8.08 8.08z" id="F"/><path d="M350.16 413.38v64.12c0 9.3-4.38 16.85-9.78 16.85h-37.22c-5.4 0-9.78-7.55-9.78-16.85v-64.12c0-9.33 4.37-16.86 9.78-16.86h37.22c5.4 0 9.78 7.53 9.78 16.86z" id="G"/><path d="M205.25 102.5v97.4c0 4.46-3.62 8.08-8.08 8.08H150.4c-4.46 0-8.08-3.62-8.08-8.08v-97.4c0-4.46 3.62-8.08 8.08-8.08h46.78c4.46 0 8.08 3.62 8.08 8.08z" id="H"/><path d="M565.2 153.13v79.58c0 5.04-4.08 9.13-9.1 9.13H92.72c-5.04 0-9.13-4.1-9.13-9.13v-79.58c0-5.04 4.1-9.12 9.13-9.12H556.1c5.03 0 9.1 4.08 9.1 9.12z" id="I"/><path d="M433.68 300.37v64.13c0 9.3-4.4 16.85-9.8 16.85h-37.2c-5.4 0-9.78-7.55-9.78-16.85v-64.13c0-9.32 4.38-16.85 9.78-16.85h37.2c5.4 0 9.8 7.53 9.8 16.85z" id="J"/><path d="M350.16 300.37v64.13c0 9.3-4.38 16.85-9.78 16.85h-37.22c-5.4 0-9.78-7.55-9.78-16.85v-64.13c0-9.32 4.37-16.85 9.78-16.85h37.22c5.4 0 9.78 7.53 9.78 16.85z" id="K"/><path d="M517.84 300.37v64.13c0 9.3-4.38 16.85-9.8 16.85h-37.2c-5.4 0-9.78-7.55-9.78-16.85v-64.13c0-9.32 4.38-16.85 9.78-16.85h37.2c5.4 0 9.8 7.53 9.8 16.85z" id="L"/><path d="M187.76 300.37v64.13c0 9.3-4.38 16.85-9.78 16.85h-37.22c-5.4 0-9.78-7.55-9.78-16.85v-64.13c0-9.32 4.37-16.85 9.78-16.85h37.22c5.4 0 9.78 7.53 9.78 16.85z" id="M"/><path d="M268.4 413.38v64.12c0 9.3-4.4 16.85-9.8 16.85h-37.2c-5.4 0-9.78-7.55-9.78-16.85v-64.12c0-9.33 4.37-16.86 9.78-16.86h37.2c5.4 0 9.8 7.53 9.8 16.86z" id="N"/><path d="M433.68 413.38v64.12c0 9.3-4.4 16.85-9.8 16.85h-37.2c-5.4 0-9.78-7.55-9.78-16.85v-64.12c0-9.33 4.38-16.86 9.78-16.86h37.2c5.4 0 9.8 7.53 9.8 16.86z" id="O"/></defs><use xlink:href="#A" fill="#f9f9f9"/><use xlink:href="#A" class="B C D"/><use xlink:href="#B" class="E"/><use xlink:href="#B" class="B C D"/><use xlink:href="#C" class="E"/><use xlink:href="#C" class="B C D"/><use xlink:href="#D" class="E"/><use xlink:href="#D" class="B C D"/><use xlink:href="#E" class="F"/><use xlink:href="#E" class="B C D"/><use xlink:href="#F" class="F"/><use xlink:href="#F" class="B C D"/><use xlink:href="#G" class="E"/><use xlink:href="#G" class="B C D"/><use xlink:href="#H" class="F"/><use xlink:href="#H" class="B C D"/><use xlink:href="#I" fill="#f96625"/><use xlink:href="#I" class="B C D"/><use xlink:href="#J" class="E"/><use xlink:href="#J" class="B C D"/><use xlink:href="#K" class="E"/><use xlink:href="#K" class="B C D"/><use xlink:href="#L" class="E"/><use xlink:href="#L" class="B C D"/><use xlink:href="#M" class="E"/><use xlink:href="#M" class="B C D"/><use xlink:href="#N" class="E"/><use xlink:href="#N" class="B C D"/><use xlink:href="#O" class="E"/><use xlink:href="#O" class="B C D"/><use xlink:href="#P" class="F" href="#H"/><use xlink:href="#P" class="B C D" href="#H"/><use xlink:href="#Q" class="F" href="#E"/><use xlink:href="#Q" class="B C D" href="#E"/><use xlink:href="#R" class="F" href="#F"/><use xlink:href="#R" class="B C D" href="#F"/></svg>