<?xml version="1.0" encoding="UTF-8" standalone="no"?>
<!DOCTYPE svg PUBLIC "-//W3C//DTD SVG 1.1//EN" "http://www.w3.org/Graphics/SVG/1.1/DTD/svg11.dtd">
<svg version="1.1" xmlns="http://www.w3.org/2000/svg" xmlns:xlink="http://www.w3.org/1999/xlink" preserveAspectRatio="xMidYMid meet" viewBox="0 0 640 640" width="40" height="40"><defs><path d="M557.32 132.24C563.55 132.24 568.6 137.29 568.6 143.52C568.6 223.36 568.6 451.6 568.6 531.45C568.6 537.68 563.55 542.73 557.32 542.73C461.11 542.73 183.78 542.73 87.58 542.73C81.34 542.73 76.29 537.68 76.29 531.45C76.29 451.6 76.29 223.36 76.29 143.52C76.29 137.29 81.34 132.24 87.58 132.24C183.78 132.24 461.11 132.24 557.32 132.24Z" id="fae3tkVrJ"></path><path d="M196.75 244.83C202.27 244.83 206.75 249.3 206.75 254.83C206.75 264.43 206.75 283.26 206.75 292.87C206.75 298.39 202.27 302.87 196.75 302.87C187.14 302.87 168.31 302.87 158.71 302.87C153.18 302.87 148.71 298.39 148.71 292.87C148.71 283.26 148.71 264.43 148.71 254.83C148.71 249.3 153.18 244.83 158.71 244.83C168.31 244.83 187.14 244.83 196.75 244.83Z" id="e2K9Rp4wmi"></path><path d="M196.75 315.66C202.27 315.66 206.75 320.14 206.75 325.66C206.75 335.27 206.75 354.1 206.75 363.71C206.75 369.23 202.27 373.71 196.75 373.71C187.14 373.71 168.31 373.71 158.71 373.71C153.18 373.71 148.71 369.23 148.71 363.71C148.71 354.1 148.71 335.27 148.71 325.66C148.71 320.14 153.18 315.66 158.71 315.66C168.31 315.66 187.14 315.66 196.75 315.66Z" id="a7HMO9A3E"></path><path d="M394.37 244.83C399.89 244.83 404.37 249.3 404.37 254.83C404.37 264.43 404.37 283.26 404.37 292.87C404.37 298.39 399.89 302.87 394.37 302.87C384.76 302.87 365.94 302.87 356.33 302.87C350.81 302.87 346.33 298.39 346.33 292.87C346.33 283.26 346.33 264.43 346.33 254.83C346.33 249.3 350.81 244.83 356.33 244.83C365.94 244.83 384.76 244.83 394.37 244.83Z" id="b1ZIlLVgf"></path><path d="M196.75 453.15C202.27 453.15 206.75 457.62 206.75 463.15C206.75 472.76 206.75 491.58 206.75 501.19C206.75 506.71 202.27 511.19 196.75 511.19C187.14 511.19 168.31 511.19 158.71 511.19C153.18 511.19 148.71 506.71 148.71 501.19C148.71 491.58 148.71 472.76 148.71 463.15C148.71 457.62 153.18 453.15 158.71 453.15C168.31 453.15 187.14 453.15 196.75 453.15Z" id="a5axdsRAB"></path><path d="M297.66 244.83C303.18 244.83 307.66 249.3 307.66 254.83C307.66 264.43 307.66 283.26 307.66 292.87C307.66 298.39 303.18 302.87 297.66 302.87C288.05 302.87 269.22 302.87 259.62 302.87C254.09 302.87 249.62 298.39 249.62 292.87C249.62 283.26 249.62 264.43 249.62 254.83C249.62 249.3 254.09 244.83 259.62 244.83C269.22 244.83 288.05 244.83 297.66 244.83Z" id="bh4Ts016I"></path><path d="M297.66 315.66C303.18 315.66 307.66 320.14 307.66 325.66C307.66 335.27 307.66 354.1 307.66 363.71C307.66 369.23 303.18 373.71 297.66 373.71C288.05 373.71 269.22 373.71 259.62 373.71C254.09 373.71 249.62 369.23 249.62 363.71C249.62 354.1 249.62 335.27 249.62 325.66C249.62 320.14 254.09 315.66 259.62 315.66C269.22 315.66 288.05 315.66 297.66 315.66Z" id="b1n7zf7RUK"></path><path d="M346.36 81.54C350.92 81.54 354.62 85.24 354.62 89.8C354.62 111.36 354.62 167.8 354.62 189.36C354.62 193.92 350.92 197.62 346.36 197.62C335.14 197.62 309.75 197.62 298.54 197.62C293.98 197.62 290.28 193.92 290.28 189.36C290.28 167.8 290.28 111.36 290.28 89.8C290.28 85.24 293.98 81.54 298.54 81.54C309.75 81.54 335.14 81.54 346.36 81.54Z" id="cxMlkjGLY"></path><path d="M499.01 81.54C503.58 81.54 507.27 85.24 507.27 89.8C507.27 111.36 507.27 167.8 507.27 189.36C507.27 193.92 503.58 197.62 499.01 197.62C487.8 197.62 462.41 197.62 451.2 197.62C446.63 197.62 442.94 193.92 442.94 189.36C442.94 167.8 442.94 111.36 442.94 89.8C442.94 85.24 446.63 81.54 451.2 81.54C462.41 81.54 487.8 81.54 499.01 81.54Z" id="bKmuOZjQ"></path><path d="M192.39 81.54C196.95 81.54 200.65 85.24 200.65 89.8C200.65 111.36 200.65 167.8 200.65 189.36C200.65 193.92 196.95 197.62 192.39 197.62C181.18 197.62 155.79 197.62 144.57 197.62C140.01 197.62 136.31 193.92 136.31 189.36C136.31 167.8 136.31 111.36 136.31 89.8C136.31 85.24 140.01 81.54 144.57 81.54C155.79 81.54 181.18 81.54 192.39 81.54Z" id="a1SZ9tLGY4"></path><path d="M196.75 385.8C202.27 385.8 206.75 390.28 206.75 395.8C206.75 405.41 206.75 424.24 206.75 433.85C206.75 439.37 202.27 443.85 196.75 443.85C187.14 443.85 168.31 443.85 158.71 443.85C153.18 443.85 148.71 439.37 148.71 433.85C148.71 424.24 148.71 405.41 148.71 395.8C148.71 390.28 153.18 385.8 158.71 385.8C168.31 385.8 187.14 385.8 196.75 385.8Z" id="b2UICrGhwa"></path><path d="M297.66 385.8C303.18 385.8 307.66 390.28 307.66 395.8C307.66 405.41 307.66 424.24 307.66 433.85C307.66 439.37 303.18 443.85 297.66 443.85C288.05 443.85 269.22 443.85 259.62 443.85C254.09 443.85 249.62 439.37 249.62 433.85C249.62 424.24 249.62 405.41 249.62 395.8C249.62 390.28 254.09 385.8 259.62 385.8C269.22 385.8 288.05 385.8 297.66 385.8Z" id="c7DT6K6QEo"></path><path d="M297.66 453.15C303.18 453.15 307.66 457.62 307.66 463.15C307.66 472.76 307.66 491.58 307.66 501.19C307.66 506.71 303.18 511.19 297.66 511.19C288.05 511.19 269.22 511.19 259.62 511.19C254.09 511.19 249.62 506.71 249.62 501.19C249.62 491.58 249.62 472.76 249.62 463.15C249.62 457.62 254.09 453.15 259.62 453.15C269.22 453.15 288.05 453.15 297.66 453.15Z" id="cpGqmsmOT"></path><path d="M559.28 132.24C564.43 132.24 568.6 136.41 568.6 141.56C568.6 159.7 568.6 204.78 568.6 222.91C568.6 228.06 564.43 232.24 559.28 232.24C462.68 232.24 182.21 232.24 85.62 232.24C80.47 232.24 76.29 228.06 76.29 222.91C76.29 204.78 76.29 159.7 76.29 141.56C76.29 136.41 80.47 132.24 85.62 132.24C182.21 132.24 462.68 132.24 559.28 132.24Z" id="b5zLeZ7kme"></path><path d="M394.37 315.66C399.89 315.66 404.37 320.14 404.37 325.66C404.37 335.27 404.37 354.1 404.37 363.71C404.37 369.23 399.89 373.71 394.37 373.71C384.76 373.71 365.94 373.71 356.33 373.71C350.81 373.71 346.33 369.23 346.33 363.71C346.33 354.1 346.33 335.27 346.33 325.66C346.33 320.14 350.81 315.66 356.33 315.66C365.94 315.66 384.76 315.66 394.37 315.66Z" id="b5vwb4R2Zz"></path><path d="M394.37 385.8C399.89 385.8 404.37 390.28 404.37 395.8C404.37 405.41 404.37 424.24 404.37 433.85C404.37 439.37 399.89 443.85 394.37 443.85C384.76 443.85 365.94 443.85 356.33 443.85C350.81 443.85 346.33 439.37 346.33 433.85C346.33 424.24 346.33 405.41 346.33 395.8C346.33 390.28 350.81 385.8 356.33 385.8C365.94 385.8 384.76 385.8 394.37 385.8Z" id="cPKGQkBaN"></path><path d="M394.37 453.15C399.89 453.15 404.37 457.62 404.37 463.15C404.37 472.76 404.37 491.58 404.37 501.19C404.37 506.71 399.89 511.19 394.37 511.19C384.76 511.19 365.94 511.19 356.33 511.19C350.81 511.19 346.33 506.71 346.33 501.19C346.33 491.58 346.33 472.76 346.33 463.15C346.33 457.62 350.81 453.15 356.33 453.15C365.94 453.15 384.76 453.15 394.37 453.15Z" id="c18Zus3AtB"></path><path d="M490.38 244.83C495.91 244.83 500.38 249.3 500.38 254.83C500.38 264.43 500.38 283.26 500.38 292.87C500.38 298.39 495.91 302.87 490.38 302.87C480.78 302.87 461.95 302.87 452.34 302.87C446.82 302.87 442.34 298.39 442.34 292.87C442.34 283.26 442.34 264.43 442.34 254.83C442.34 249.3 446.82 244.83 452.34 244.83C461.95 244.83 480.78 244.83 490.38 244.83Z" id="apXb4gtz8"></path><path d="M490.38 315.66C495.91 315.66 500.38 320.14 500.38 325.66C500.38 335.27 500.38 354.1 500.38 363.71C500.38 369.23 495.91 373.71 490.38 373.71C480.78 373.71 461.95 373.71 452.34 373.71C446.82 373.71 442.34 369.23 442.34 363.71C442.34 354.1 442.34 335.27 442.34 325.66C442.34 320.14 446.82 315.66 452.34 315.66C461.95 315.66 480.78 315.66 490.38 315.66Z" id="e6zmxR31E"></path><path d="M490.38 385.8C495.91 385.8 500.38 390.28 500.38 395.8C500.38 405.41 500.38 424.24 500.38 433.85C500.38 439.37 495.91 443.85 490.38 443.85C480.78 443.85 461.95 443.85 452.34 443.85C446.82 443.85 442.34 439.37 442.34 433.85C442.34 424.24 442.34 405.41 442.34 395.8C442.34 390.28 446.82 385.8 452.34 385.8C461.95 385.8 480.78 385.8 490.38 385.8Z" id="auogaHHeD"></path><path d="M490.38 453.15C495.91 453.15 500.38 457.62 500.38 463.15C500.38 472.76 500.38 491.58 500.38 501.19C500.38 506.71 495.91 511.19 490.38 511.19C480.78 511.19 461.95 511.19 452.34 511.19C446.82 511.19 442.34 506.71 442.34 501.19C442.34 491.58 442.34 472.76 442.34 463.15C442.34 457.62 446.82 453.15 452.34 453.15C461.95 453.15 480.78 453.15 490.38 453.15Z" id="bLqq8ZMZ"></path><path d="M192.39 81.54C196.95 81.54 200.65 85.24 200.65 89.8C200.65 111.36 200.65 167.8 200.65 189.36C200.65 193.92 196.95 197.62 192.39 197.62C181.18 197.62 155.79 197.62 144.57 197.62C140.01 197.62 136.31 193.92 136.31 189.36C136.31 167.8 136.31 111.36 136.31 89.8C136.31 85.24 140.01 81.54 144.57 81.54C155.79 81.54 181.18 81.54 192.39 81.54Z" id="b7Aend6guG"></path><path d="M346.36 81.54C350.92 81.54 354.62 85.24 354.62 89.8C354.62 111.36 354.62 167.8 354.62 189.36C354.62 193.92 350.92 197.62 346.36 197.62C335.14 197.62 309.75 197.62 298.54 197.62C293.98 197.62 290.28 193.92 290.28 189.36C290.28 167.8 290.28 111.36 290.28 89.8C290.28 85.24 293.98 81.54 298.54 81.54C309.75 81.54 335.14 81.54 346.36 81.54Z" id="eWaOMFJ0G"></path><path d="M499.01 81.54C503.58 81.54 507.27 85.24 507.27 89.8C507.27 111.36 507.27 167.8 507.27 189.36C507.27 193.92 503.58 197.62 499.01 197.62C487.8 197.62 462.41 197.62 451.2 197.62C446.63 197.62 442.94 193.92 442.94 189.36C442.94 167.8 442.94 111.36 442.94 89.8C442.94 85.24 446.63 81.54 451.2 81.54C462.41 81.54 487.8 81.54 499.01 81.54Z" id="c24mn2o3oY"></path></defs><g><g><g><use xlink:href="#fae3tkVrJ" opacity="1" fill="#f9f9f9" fill-opacity="1"></use></g><g><use xlink:href="#e2K9Rp4wmi" opacity="1" fill="#b9b9b9" fill-opacity="1"></use></g><g><use xlink:href="#a7HMO9A3E" opacity="1" fill="#b9b9b9" fill-opacity="1"></use></g><g><use xlink:href="#b1ZIlLVgf" opacity="1" fill="#d4b997" fill-opacity="1"></use></g><g><use xlink:href="#a5axdsRAB" opacity="1" fill="#b9b9b9" fill-opacity="1"></use></g><g><use xlink:href="#bh4Ts016I" opacity="1" fill="#dab193" fill-opacity="1"></use></g><g><use xlink:href="#b1n7zf7RUK" opacity="1" fill="#dab193" fill-opacity="1"></use></g><g><use xlink:href="#cxMlkjGLY" opacity="1" fill="#e4e4e4" fill-opacity="1"></use></g><g><use xlink:href="#bKmuOZjQ" opacity="1" fill="#e4e4e4" fill-opacity="1"></use></g><g><use xlink:href="#a1SZ9tLGY4" opacity="1" fill="#e4e4e4" fill-opacity="1"></use></g><g><use xlink:href="#b2UICrGhwa" opacity="1" fill="#b9b9b9" fill-opacity="1"></use></g><g><use xlink:href="#c7DT6K6QEo" opacity="1" fill="#dab193" fill-opacity="1"></use></g><g><use xlink:href="#cpGqmsmOT" opacity="1" fill="#dab193" fill-opacity="1"></use></g><g><use xlink:href="#b5zLeZ7kme" opacity="1" fill="#f96625" fill-opacity="1"></use></g><g><use xlink:href="#b5vwb4R2Zz" opacity="1" fill="#d4b997" fill-opacity="1"></use></g><g><use xlink:href="#cPKGQkBaN" opacity="1" fill="#d4b997" fill-opacity="1"></use></g><g><use xlink:href="#c18Zus3AtB" opacity="1" fill="#d4b997" fill-opacity="1"></use></g><g><use xlink:href="#apXb4gtz8" opacity="1" fill="#d16934" fill-opacity="1"></use></g><g><use xlink:href="#e6zmxR31E" opacity="1" fill="#d16934" fill-opacity="1"></use></g><g><use xlink:href="#auogaHHeD" opacity="1" fill="#d16934" fill-opacity="1"></use></g><g><use xlink:href="#bLqq8ZMZ" opacity="1" fill="#d16934" fill-opacity="1"></use></g><g><use xlink:href="#b7Aend6guG" opacity="1" fill="#e4e4e4" fill-opacity="1"></use></g><g><use xlink:href="#eWaOMFJ0G" opacity="1" fill="#e4e4e4" fill-opacity="1"></use></g><g><use xlink:href="#c24mn2o3oY" opacity="1" fill="#e4e4e4" fill-opacity="1"></use></g></g></g></svg>