<svg xmlns="http://www.w3.org/2000/svg" xmlns:xlink="http://www.w3.org/1999/xlink" preserveAspectRatio="xMidYMid meet" width="640" height="640"><style><![CDATA[.B{fill-opacity:0}]]></style><defs><path d="M258.02 179.85l.01.01 1.94 4.2 1.2 2.87.28.66.34.83 1.66 4.5v.01l1.5 4.65 1.35 4.8 1.18 4.94 1 5.1.84 5.23.66 5.38.48 5.52.3 5.67.1 5.8-96.75 22.2-114.48-22.2.1-5.8.3-5.67.48-5.52.67-5.38.84-5.23 1-5.1 1.18-4.94 1.35-4.8 1.5-4.65 1.66-4.5 1.8-4.36 1.95-4.2 2.1-4.07 2.22-3.93 2.35-3.78 2.48-3.63 2.6-3.5 2.7-3.34 2.8-3.2 2.92-3.05 3.02-2.9 3.1-2.76 3.2-2.62 3.3-2.47 3.37-2.32 3.44-2.18 3.5-2.03 3.58-1.9 3.63-1.74 3.7-1.6 3.74-1.45 3.78-1.3 3.82-1.16 3.86-1 3.88-.87 3.9-.72 3.93-.57 2.7-.3-.05-.02.23-.02.24-.02.23-.02.23-.03 1.38-.12.23-.01.7-.06.23-.01.23-.02.23-.01.23-.02.46-.02h.23l.7-.03.23-.02.92-.04h.23l.7-.03h.23l.46-.02h.23l.24-.01h.46l3.96.13 3.96.3 3.94.42 3.93.58 3.9.72 3.9.86 3.86 1.02 3.82 1.15 3.78 1.3 3.74 1.45 3.7 1.6 3.63 1.74 3.57 1.9 3.5 2.03 3.44 2.18 3.37 2.32 3.28 2.47 3.2 2.62 3.12 2.76 3.02 2.9 2.92 3.05 2.8 3.2 2.7 3.34 2.6 3.5 2.47 3.63h.01l2.34 3.78 2.23 3.93 2.08 4.06z" id="A"/><path d="M17.75 499.74c0 2.82 1.4 5.33 3.5 6.9 1.4 1.03 3.13 1.66 5 1.66h277.97c1.88 0 3.62-.63 5-1.66 2.15-1.56 3.5-4.07 3.5-6.9v-27.86c0-49.12-33.37-62.86-67.54-72.47H85.3c-34.17 9.6-67.55 23.35-67.55 72.47v27.86z" id="B"/><path d="M206.62 367.02l.2.45.22.5.23.54.23.58.23.6.25.65.25.67.26.7.28.73.28.75.3.78.3.8.32.8.34.82.35.83.37.85.38.84.4.86.42.85.44.85.46.85.48.84.5.83.53.83.55.8.58.8.6.77.63.76.66.73.7.7.72.68.74.64.78.6.8.58.84.54.88.5.9.45.95.4.98.36 1.02.32.9.24.44.12 2.7.72.46.12.45.13.9.24.46.12.9.24.46.13.45.12.46.12.45.12.46.12.46.13.45.12.46.12.45.13.92.24.45.13.46.12.46.13.45.12.46.13.46.12.46.13.45.12.46.13.46.12.45.13.92.26-29.3 17.17-37.16 21.82-.8.5-.8.48-.78.44-.76.42-.75.4-.74.37-.72.33-.72.32-.7.28-.7.26-.7.22-.68.2-.68.17-.66.15-.67.12-.66.1-.66.07-.66.04-.65.01-.66-.01-.66-.04-.66-.07-.66-.1-.66-.12-.67-.15-.68-.17-.68-.2-.7-.22-.7-.26-.7-.28-1.44-.65-.74-.37-.75-.4-.76-.42-.78-.44-.8-.48-.8-.5-.83-.52L85.3 399.4l.46-.13.45-.13.46-.13.46-.12.45-.13.46-.12.46-.13.45-.12.46-.13.46-.12.45-.13.46-.12.46-.13.45-.12.46-.12.46-.13.45-.12.46-.12.46-.13.45-.12.46-.12.45-.12.46-.12.45-.13.45-.12.46-.12.9-.24.46-.12.45-.13 4.5-1.2 1.02-.32 1-.36.94-.4.92-.45.87-.5.85-.54.8-.57.77-.62.75-.64.72-.68.27-.28h-.01l.5-.53.5-.53.38-.45.18-.2.24-.3.52-.66.57-.8.56-.8.53-.83.5-.83.5-.84.46-.85.44-.85.42-.85.4-.86.4-.84.36-.85.36-.83.33-.82.32-.8.3-.8.3-.78.3-.75.27-.73.26-.7.26-.67.24-.65.24-.6.23-.58.22-.54.22-.5.04-.07.02-.05.16-.33h82.76z" id="C"/><path d="M205.53 367.62l-.37.2-.36.2-.37.2-.36.2-.37.2-.37.18-.36.2-.37.2-.37.18-.37.2-1.85.9-.37.17-.38.17-.37.18-.37.17-.38.17-.37.16-.38.17-.38.16-.37.17-1.14.48-.38.15-.38.16-1.14.45-.4.15-.38.15-.38.14-.4.15-.38.14-1.43.52-1.4.5-1.4.47-1.38.44-1.37.4-1.35.4-1.34.36-1.33.33-1.33.3-1.3.28-1.3.25-1.3.23-1.3.2-1.28.17-1.28.15-1.28.12-1.27.1-1.27.07-1.27.04-1.26.01-1.27-.01-1.27-.04-1.26-.07-1.28-.1-1.27-.12-1.28-.15-1.28-.17-1.3-.2-1.3-.23-1.3-.25-1.3-.28-1.32-.3-1.33-.33-1.34-.36-1.36-.4-1.36-.4-1.38-.44-1.4-.47-1.4-.5-1.43-.52-.38-.14-.38-.15-.4-.14-.76-.3-.07-.03-.13-.05-.2-.08-.15-.05-.14-.06-.2-.08h.03l-.26-.1-.38-.16-.38-.15-.37-.16-.76-.32-.38-.17-.37-.16-.38-.17-.38-.16-.37-.17-.38-.17-.37-.17-.37-.18-.38-.17-1.1-.54-.38-.18-.74-.36-.37-.2-.36-.2-.37-.18-.74-.38-.36-.2-.37-.2-.37-.2-.36-.2-.36-.2-.37-.2-.36-.2-1.82-1.05-1.8-1.1-1.8-1.2-1.78-1.25-1.78-1.3-1.76-1.4-1.75-1.45-1.75-1.52-1.73-1.6-1.72-1.66-1.7-1.72-1.7-1.8-1.7-1.86-1.68-1.93-1.66-2-1.66-2.06-1.64-2.13-1.63-2.2-1.63-2.26-1.6-2.34-1.6-2.4-1.6-2.47-1.58-2.54-1.56-2.6-1.56-2.67-1.55-2.74-1.53-2.8-1.53-2.88-1.5-2.94-1.5-3-1.5-3.08-1.48-3.14-1.47-3.22-1.46-3.28-1.44-3.35-1.44-3.42-1.43-3.48-1.4-3.55-1.4-3.62-1.4-3.7v-32.3l3.1-.28 2.94-.38 2.77-.5 2.62-.57 2.45-.66 2.32-.74 2.18-.8 2.05-.88 1.92-.93 1.82-1 1.7-1.03 1.62-1.07 1.52-1.1 1.45-1.13 1.37-1.15 1.3-1.16 1.25-1.17 1.2-1.16 1.16-1.16 1.13-1.15 1.1-1.13 1.1-1.1 1.08-1.07 1.08-1.02 1.08-1 1.1-.93 1.12-.87 1.16-.8 1.2-.73 1.24-.66 1.3-.56 1.36-.48 1.43-.38 1.5-.27 1.6-.16 1.7-.04 1.8.08 1.9.2 2.02.36 2.15.5 1.68.44 1.63.42 1.58.4 3.02.8 4.17 1.1 1.3.34 1.26.34 1.22.32 1.18.32 1.14.3 2.18.57 1.04.27 1.98.5.95.24.9.22.9.22.87.2.84.2.82.18.8.17.78.16.75.15.74.14.73.12.7.12.7.1.68.1.67.08.67.07.65.06.65.05.64.04.64.03.64.02h1.27l.64-.02.64-.03.64-.04.65-.05.66-.06.66-.07.67-.08.7-.1.7-.1.7-.12.73-.12.74-.14.75-.15.78-.16.8-.17.82-.18.84-.2.86-.2.9-.22.92-.22 1.92-.5 2.04-.53 4.5-1.18 2.48-.67 1.3-.34 1.34-.36 2.82-.75 3.02-.8 1.58-.4 1.63-.42 1.68-.44 2.15-.5 2.02-.36 1.9-.2 1.8-.08 1.7.04 1.6.16 1.5.27 1.43.38 1.36.48 1.3.56 1.24.66 1.2.73 1.16.8 1.12.87 1.1.93 1.1 1 1.08 1.02 1.08 1.07 1.08 1.1 2.24 2.28 1.16 1.16 1.2 1.16 1.25 1.17 1.3 1.16 1.37 1.15 1.45 1.13 1.52 1.1 1.62 1.07 1.7 1.03 1.8.98.03.02 1.9.92 1.93.82.22.1 2.02.74.18.07 2.06.65.18.06 2.2.6.4.1 2.53.55 2.78.48 2.57.33.53.06 2.8.25v32.3l-.05 2.52-.15 2.55-.26 2.57-.35 2.6-.45 2.6-.54 2.63-.64 2.63-.73 2.65-.82 2.65-.9 2.66-1 2.66-1.08 2.66-1.16 2.65-1.25 2.65-1.32 2.64-1.4 2.63-1.47 2.62-1.55 2.6-1.62 2.58-1.7 2.56-1.75 2.53-1.83 2.5-1.9 2.48-1.95 2.44-2.02 2.4-2.07 2.37-2.13 2.33-2.2 2.28-2.24 2.24-2.3 2.2-2.34 2.14-2.4 2.08-2.44 2.03-2.48 1.97-2.53 1.9-2.57 1.85-2.62 1.77-2.65 1.7-2.68 1.63-2.72 1.56-.37.2-.72.4z" id="D"/><path d="M215.88 416.58c34.17 9.62 67.54 23.4 67.54 72.47v19.24h20.8c1.88 0 3.62-.63 5-1.66 2.15-1.56 3.5-4.07 3.5-6.9v-27.86c0-49.12-33.37-62.86-67.54-72.47l-29.3 17.17z" id="E"/><path d="M575.8 202.38h0l1.18 4.94 1 5.1.84 5.23.03.17.64 5.2.48 5.52.3 5.67.1 5.8-96.8 22.2-114.48-22.2.1-5.8.3-5.67.48-5.52.67-5.38.84-5.23 1-5.1 1.18-4.94 1.35-4.8 1.5-4.65 1.65-4.5 1.8-4.36 1.95-4.2 2.1-4.07 2.22-3.93 2.35-3.78 2.48-3.63 2.6-3.5 2.7-3.34 2.82-3.2 2.92-3.05 3.02-2.9 3.1-2.76 3.2-2.62 3.3-2.47 3.36-2.32 3.44-2.18 3.5-2.03 3.58-1.9 3.63-1.74 3.7-1.6 3.73-1.45 3.78-1.3 3.82-1.16 3.86-1 3.88-.87 3.9-.72 3.93-.57 2.73-.3-.04-.02.23-.02.22-.02.23-.02.23-.03 1.38-.12.23-.01.23-.02.22-.02h.23l.23-.01.23-.02.23-.01.23-.02.46-.02h.23l.7-.03.23-.02.92-.04h.23l.7-.03h.23l.23-.01.22-.01h.23l.23-.01h.46l3.96.13 3.96.3 3.94.42 3.93.58 3.92.72 3.88.86 3.86 1.02 3.82 1.15 3.8 1.3 3.73 1.45 3.7 1.6 3.64 1.74 3.57 1.9 3.5 2.03 3.45 2.18 3.36 2.32 3.3 2.47 3.2 2.62 3.12 2.76 3.02 2.9 2.92 3.05 2.82 3.2 2.7 3.34 2.6 3.5 2.48 3.63 2.35 3.78 2.22 3.93 2.1 4.06 1.95 4.22 1.8 4.36 1.66 4.5v.01l1.5 4.65 1.35 4.8z" id="F"/><path d="M579.63 407.88l2.37 1.04 2.33 1.1 2.28 1.14 2.25 1.2 2.2 1.25 2.15 1.3 2.1 1.38 2.04 1.44 2 1.5 1.93 1.58 1.86 1.65 1.8 1.73 1.73 1.8 1.65 1.9 1.57 1.98.65.9.85 1.16.1.15 1.32 2 1.33 2.26 1.23 2.35.45.95.7 1.5.1.23.96 2.33.96 2.66.85 2.77.75 2.9.64 3 .54 3.12.42 3.24.2 2.18.1 1.18.18 3.5.07 3.62-.01 28.28-.02.2-.01.2-.03.2-.03.2-.03.2-.12.6-.06.2-.05.2-.06.2-.14.38-.07.18-.08.2-.16.36h-.01l-.1.18-.1.17-.1.17h0l-.1.16-.22.34-.1.16-.24.32-.12.15-.4.45-.28.28-.6.52-.32.24-.1.08-.1.07-.1.08-.1.07-.22.14-.12.06-.1.07-.12.06-.1.06-.12.07-.12.05-.24.12-.36.15-.13.05-.12.04-.13.05-.12.04-.26.08-.13.03-.13.04-.13.03-.14.03-.13.02-.13.03-.14.02-.13.02h-.14l-.13.02-.14.02-.42.03h-.14l-.14.01H335.6l-.14-.01h-.14l-.13-.01-.28-.02-.14-.02-.13-.02h-.14l-.26-.04-.14-.03-.13-.02-.26-.06-.13-.04-.13-.03-.13-.04-.12-.04-.13-.04-.12-.05-.13-.04-.12-.05-.13-.05-.24-.1-.24-.12-.12-.05-.1-.07-.24-.12-.1-.07-.1-.06-.12-.07-.22-.14-.1-.08-.1-.07-.1-.08-.15-.12-.16-.12-.15-.13-.14-.12-.15-.14-.14-.13-.28-.28-.26-.3-.12-.15-.13-.15-.12-.16-.22-.32-.1-.17-.1-.16-.1-.17-.1-.18-.1-.17-.1-.18-.08-.18-.1-.18-.07-.18-.08-.2-.06-.2-.07-.2-.06-.2-.05-.2-.06-.2-.12-.6-.03-.2-.03-.2-.02-.2-.04-.42v-.2l-.01-.2v-27.86l.07-3.62.18-3.5.3-3.36.42-3.24.54-3.12.64-3 .75-2.9.85-2.77.95-2.66 1.05-2.56 1.15-2.45 1.24-2.35 1.32-2.26 1.4-2.16 1.5-2.06 1.57-1.98 1.65-1.9 1.72-1.8 1.8-1.73 1.86-1.65 1.93-1.58 1.98-1.5 2.04-1.44 2.1-1.38 2.15-1.3 2.2-1.25 2.24-1.2 2.3-1.14 2.33-1.1 2.36-1.04 2.4-1 2.42-.96 2.46-.92 2.48-.88 2.5-.85 2.5-.82 2.54-.8 2.54-.77 2.56-.74 2.56-.73h159.87l2.57.73 2.55.74 2.55.77 2.53.8 2.52.82 2.5.85 2.48.88 2.46.92 2.43.96 2.4 1z" id="G"/><path d="M516.57 367.97l.22.54.23.58.23.6.25.65.25.67.26.7.27.73.28.75.3.78.3.8.32.8.33.82.35.83.37.85.38.84.4.86.42.85.44.85.46.85.5.84.5.83.53.83.55.8.58.8.6.77.63.76.66.73.7.7.7.68.75.64.78.6.8.58.84.54.88.5.9.45.95.4.98.36 1.02.32.9.24.44.12 3.15.84.46.13.9.24.46.12.9.24.46.13.45.12.46.12.45.12.46.12.45.13.92.24.45.13.92.24.45.13.46.12.46.13.45.12.46.13.46.12.45.13.46.12.46.13.45.12.92.26.45.13-66.4 39-.8.5-.8.48-.78.44-.77.42-.75.4-.74.37-.72.33-.72.32-.7.28-.7.26-.7.22-.7.2-.67.17-.67.15-.67.12-.66.1-.66.07-.66.04-.66.01-.66-.01-.66-.04-.66-.07-.66-.1-.67-.12-.67-.15-.67-.17-.7-.2-.7-.22-.7-.26-.7-.28-.72-.32-.72-.33-.74-.37-.75-.4-.77-.42-.78-.44-.8-.48-.8-.5-.83-.52-65.62-38.47 1.38-.4.46-.12.46-.13.45-.12.46-.13.46-.12.46-.13.46-.12.45-.13.46-.12.46-.13.45-.12.46-.12.46-.13.45-.12.46-.12.45-.13.46-.12.45-.12.46-.12.45-.12.45-.13.46-.12 1.8-.48.46-.13 1.8-.48.44-.12 1.35-.36.44-.12.45-.12 1.03-.32.98-.36.95-.4.92-.45.88-.5.84-.54.8-.57.78-.62.75-.64.72-.68.66-.67.04-.05.65-.7.63-.75.01-.01.6-.77.58-.8.56-.83.52-.8.48-.78.08-.15.35-.6.14-.25.28-.5.12-.23.23-.45.1-.2.3-.6.3-.63.58-1.26.28-.62.52-1.24.25-.6.24-.6.24-.6.22-.6.22-.58.22-.56.2-.56.2-.54.2-.53.2-.5.18-.5.18-.48.18-.46.17-.44.17-.42.17-.4.16-.38.16-.36.16-.33h82.8l.2.45.22.5z" id="H"/><path d="M472.2 379.2l-1.27-.07-1.28-.1-1.27-.12-1.28-.15-1.28-.17-1.3-.2-1.3-.23-1.3-.25-1.3-.28-1.32-.3-1.34-.33-1.34-.36-1.35-.4-1.37-.4-1.38-.44-1.4-.47-1.4-.5-1.43-.52-.07-.03-.3-.1-.38-.15-.38-.14-.4-.15-.38-.15-.06-.02-.14-.06-.22-.08-.14-.05-.14-.06-.2-.08h.03l-.26-.1-.38-.16-.38-.15-.37-.16-.76-.32-.38-.17-.37-.16-.38-.17-.38-.16-.37-.17-.38-.17-.37-.17-.37-.18-.38-.17-1.1-.54-.38-.18-.74-.36-.37-.2-.36-.2-.37-.18-.74-.38-.36-.2-.37-.2-.36-.2-.37-.2-.36-.2-.37-.2-.36-.2-1.82-1.05-1.8-1.1-1.8-1.2-1.78-1.25-1.78-1.3-1.76-1.4-1.75-1.45-1.75-1.52-1.73-1.6-1.72-1.66-1.7-1.72-1.7-1.8-1.7-1.86-1.68-1.93-1.66-2-1.66-2.06-1.64-2.13-1.63-2.2-1.63-2.26-1.6-2.34-1.6-2.4-1.6-2.47-1.58-2.54-1.56-2.6-1.56-2.67-1.55-2.74-1.53-2.8-1.53-2.88-1.5-2.94-1.5-3-1.5-3.08-1.5-3.14-1.47-3.22-1.45-3.28-1.45-3.35-1.44-3.42-1.43-3.48-1.4-3.55-1.4-3.62-1.4-3.7v-32.3l3.1-.28 2.94-.38 2.78-.5 2.6-.57 2.46-.66 2.3-.74 2.18-.8 2.05-.88 1.93-.93 1.8-1 1.7-1.03 1.62-1.07 1.52-1.1 1.45-1.13 1.37-1.15 1.3-1.16 1.25-1.17 1.2-1.16 1.16-1.16 1.13-1.15 1.1-1.13 1.1-1.1 1.08-1.07 1.08-1.02 1.08-1 1.1-.93 1.12-.87 1.16-.8 1.2-.73 1.24-.66 1.3-.56 1.35-.48 1.43-.38 1.5-.27 1.6-.16 1.7-.04 1.8.08 1.9.2 2.02.36 2.15.5 1.68.44 1.63.42 3.12.8 1.48.4 4.17 1.1 1.3.34 1.26.34 1.22.32 1.18.32 1.14.3 2.18.57 1.04.27 1.98.5.95.24.9.22.9.22.87.2.84.2.82.18.8.17.78.16.75.15.74.14.73.12.7.12.7.1.68.1.68.08.66.07.65.06.65.05.64.04.64.03.64.02h1.27l.64-.02.64-.03.64-.04.65-.05.66-.06.67-.07.67-.08.68-.1.7-.1.7-.12.73-.12.74-.14.76-.15.77-.16.8-.17.82-.18.84-.2.87-.2.9-.22.9-.22.95-.24.98-.25 2.04-.53 4.5-1.18 1.22-.33 1.27-.34 1.3-.34 1.34-.36 1.4-.37 2.92-.77 1.53-.4 1.58-.4 1.63-.42 1.7-.44 2.14-.5 2.02-.36 1.9-.2 1.8-.08 1.7.04 1.6.16 1.5.27 1.42.38 1.36.48 1.3.56 1.24.66 1.2.73 1.15.8 1.12.87 1.1.93 1.1 1 1.08 1.02 1.08 1.07 1.1 1.1 1.1 1.13 1.13 1.15 1.16 1.16 1.2 1.16 1.25 1.17 1.3 1.16 1.37 1.15 1.45 1.13 1.53 1.1 1.6 1.07 1.72 1.03 1.8.98.02.02 1.9.92 2.12.9 2.1.78.07.02 2.23.7.05.02 2.3.6.3.08 2.43.53.07.01 2.5.44.35.05 2.6.34.5.06 2.83.25v32.3l-.05 2.52-.16 2.55-.25 2.57-.36 2.6-.45 2.6-.54 2.63-.64 2.63-.73 2.65-.82 2.65-.9 2.66-1 2.66-1.08 2.66-1.16 2.65L571 309l-1.32 2.64-1.4 2.63-1.48 2.62-1.55 2.6-1.62 2.58-1.7 2.56-1.76 2.53-1.82 2.5-1.9 2.48-1.96 2.44-2 2.4-2.08 2.37-2.13 2.33-2.2 2.28-2.24 2.24-2.3 2.2-2.35 2.14-2.4 2.08-2.44 2.03-2.48 1.97-2.53 1.9-2.57 1.85-2.6 1.77-2.65 1.7-2.68 1.63-2.72 1.56-.36.2-.74.4-.36.2-.37.2-.74.38-.37.2-.36.18-.74.38-.37.18-.37.2-.74.36-.38.18-.74.36-.74.34-.38.18-.37.17-.38.17-.37.16-.38.17-.37.16-.38.17-.37.16-.76.32-.38.15-.38.16-.37.15-1.52.6-.4.14-.38.15-.38.14-1.43.52-1.4.5-1.4.47-1.4.44-1.36.4-1.36.4-1.34.36-1.34.33-1.32.3-1.3.28-1.3.25-1.3.23-1.3.2-1.3.17-1.28.15-1.27.12-1.28.1-1.26.07-1.27.04-1.27.01-1.27-.01-1.26-.04z" id="I"/><path d="M273.25 117.38l20.88-18.07c9.67-8.37 10.73-23 2.36-32.67a23.16 23.16 0 0 0-32.67-2.36l-59.95 51.87c-6.33 5.58-10.22 13.28-10.98 21.48a23.18 23.18 0 0 0-.2 2.91c0 1 .08 1.96.2 2.92.76 8.2 4.67 15.9 11.13 21.6l59.8 51.74a23.06 23.06 0 0 0 15.14 5.65c6.5 0 12.95-2.72 17.53-8 8.37-9.67 7.3-24.3-2.36-32.67l-20.88-18.07H409.6c12.8 0 23.16-10.37 23.16-23.16 0-12.8-10.37-23.16-23.16-23.16H273.25z" id="J"/><path d="M363.6 547.4l-20.86 18.64c-9.66 8.64-10.7 23.72-2.33 33.7 4.58 5.45 11.03 8.24 17.5 8.24 5.38 0 10.78-1.92 15.16-5.83l59.66-53.3c7.28-6.5 11.43-15.77 11.38-25.48-.05-9.6-4.2-18.74-11.42-25.08l-59.6-53.36c-9.66-8.65-24.3-7.58-32.68 2.38s-7.35 25.04 2.3 33.7l20.84 18.65H227.22c-12.8 0-23.16 10.7-23.16 23.9 0 13.2 10.37 23.88 23.16 23.88H363.6z" id="K"/></defs><use xlink:href="#A" fill="#6d80aa"/><use xlink:href="#A" class="B"/><use xlink:href="#B" fill="#22a6fe"/><use xlink:href="#B" class="B"/><use xlink:href="#C" fill="#fed1a3"/><use xlink:href="#C" class="B"/><use xlink:href="#D" fill="#ffe5c1"/><use xlink:href="#D" class="B"/><use xlink:href="#E" fill="#22a6fe"/><use xlink:href="#E" class="B"/><use xlink:href="#F" fill="#6d80aa"/><use xlink:href="#F" class="B"/><use xlink:href="#G" fill="#8963b4"/><use xlink:href="#G" class="B"/><use xlink:href="#H" fill="#fed1a3"/><use xlink:href="#H" class="B"/><use xlink:href="#I" fill="#ffe5c1"/><use xlink:href="#I" class="B"/><use xlink:href="#J" fill="#e61e00"/><use xlink:href="#J" class="B"/><use xlink:href="#K" fill="#00f21a"/><use xlink:href="#K" class="B"/></svg>