<?xml version="1.0" encoding="UTF-8" standalone="no"?>
<!DOCTYPE svg PUBLIC "-//W3C//DTD SVG 1.1//EN" "http://www.w3.org/Graphics/SVG/1.1/DTD/svg11.dtd">
<svg version="1.1" xmlns="http://www.w3.org/2000/svg" xmlns:xlink="http://www.w3.org/1999/xlink" preserveAspectRatio="xMidYMid meet" viewBox="0 0 640 640" width="640" height="640"><defs><path d="M258.02 179.85L258.03 179.86L259.84 183.79L259.97 184.07L261.16 186.94L261.44 187.6L261.78 188.43L261.78 188.43L263.44 192.93L263.44 192.94L264.94 197.59L264.94 197.59L266.29 202.38L267.47 207.32L268.48 212.41L269.32 217.64L269.98 223.02L270.46 228.54L270.76 234.21L270.85 240.02L174.1 262.21L59.62 240.02L59.72 234.21L60.01 228.54L60.49 223.02L61.16 217.64L62 212.41L63.01 207.32L64.19 202.38L65.54 197.59L67.04 192.94L68.7 188.43L70.5 184.07L72.45 179.86L74.54 175.79L76.76 171.86L79.11 168.08L81.59 164.45L84.18 160.96L86.89 157.62L89.7 154.42L92.62 151.37L95.64 148.47L98.75 145.71L101.95 143.09L105.24 140.62L108.61 138.3L112.05 136.12L115.55 134.09L119.13 132.2L122.76 130.46L126.45 128.87L130.19 127.42L133.97 126.12L137.79 124.96L141.65 123.95L145.53 123.08L149.44 122.36L153.37 121.79L156.07 121.49L156.02 121.47L156.25 121.45L156.49 121.43L156.72 121.41L156.95 121.38L157.18 121.36L157.41 121.34L157.64 121.32L157.87 121.3L158.1 121.28L158.33 121.26L158.56 121.25L158.79 121.23L159.02 121.21L159.25 121.19L159.48 121.18L159.71 121.16L159.94 121.15L160.17 121.13L160.4 121.12L160.63 121.11L160.86 121.09L161.09 121.08L161.32 121.07L161.55 121.06L161.78 121.04L162.01 121.03L162.24 121.02L162.47 121.01L162.7 121L162.93 121L163.16 120.99L163.39 120.98L163.62 120.97L163.85 120.97L164.08 120.96L164.31 120.95L164.54 120.95L164.78 120.94L165.01 120.94L165.24 120.94L169.2 121.07L173.16 121.36L177.1 121.78L181.03 122.36L184.94 123.08L188.83 123.94L192.69 124.96L196.51 126.11L200.29 127.42L204.03 128.87L207.72 130.46L211.35 132.2L214.92 134.09L218.43 136.12L221.87 138.3L225.24 140.62L228.52 143.09L231.72 145.71L234.84 148.47L237.86 151.37L240.78 154.42L243.59 157.62L246.3 160.96L248.89 164.45L251.36 168.08L251.37 168.08L253.71 171.86L255.94 175.79L255.94 175.79L258.02 179.85Z" id="aXEyQDdeE"></path><path d="M17.75 499.74C17.75 502.56 19.14 505.07 21.24 506.63C22.63 507.66 24.37 508.29 26.25 508.29C54.05 508.29 276.42 508.29 304.22 508.29C306.1 508.29 307.84 507.66 309.23 506.63C311.38 505.07 312.72 502.56 312.72 499.74C312.72 496.96 312.72 474.66 312.72 471.88C312.72 422.76 279.35 409.02 245.18 399.41C229.19 399.41 101.29 399.41 85.3 399.41C51.13 409.02 17.75 422.76 17.75 471.88C17.75 471.88 17.75 496.96 17.75 499.74Z" id="bf2zunANq"></path><path d="M206.62 367.02L206.83 367.47L207.05 367.97L207.28 368.51L207.51 369.09L207.74 369.7L207.99 370.35L208.24 371.02L208.5 371.73L208.78 372.46L209.06 373.21L209.36 373.99L209.66 374.78L209.98 375.59L210.32 376.41L210.67 377.24L211.04 378.09L211.42 378.93L211.83 379.79L212.25 380.64L212.69 381.49L213.15 382.34L213.63 383.18L214.14 384.01L214.67 384.84L215.22 385.65L215.8 386.44L216.4 387.21L217.03 387.97L217.69 388.7L218.38 389.4L219.1 390.08L219.84 390.72L220.62 391.33L221.43 391.91L222.27 392.45L223.15 392.95L224.06 393.4L225.01 393.81L225.99 394.17L227.01 394.49L227.46 394.61L227.91 394.73L228.35 394.85L228.8 394.97L229.25 395.09L229.7 395.21L230.15 395.33L230.6 395.45L231.05 395.57L231.51 395.69L231.96 395.82L232.41 395.94L232.86 396.06L233.32 396.18L233.77 396.3L234.22 396.42L234.68 396.55L235.13 396.67L235.59 396.79L236.04 396.91L236.5 397.03L236.96 397.16L237.41 397.28L237.87 397.4L238.32 397.53L238.78 397.65L239.24 397.77L239.69 397.9L240.15 398.02L240.61 398.15L241.06 398.27L241.52 398.4L241.98 398.52L242.44 398.65L242.89 398.77L243.35 398.9L243.81 399.02L244.26 399.15L244.72 399.28L245.18 399.41L215.88 416.58L215.88 416.58L179.55 437.88L178.72 438.4L177.92 438.9L177.12 439.38L176.34 439.82L175.58 440.24L174.83 440.63L174.09 441L173.37 441.33L172.65 441.65L171.95 441.93L171.25 442.19L170.56 442.41L169.88 442.62L169.2 442.79L168.54 442.94L167.87 443.06L167.21 443.16L166.55 443.23L165.89 443.27L165.24 443.28L164.58 443.27L163.92 443.23L163.26 443.16L162.6 443.06L161.94 442.94L161.27 442.79L160.59 442.62L159.91 442.41L159.22 442.19L158.53 441.93L157.82 441.65L157.11 441.33L156.38 441L155.64 440.63L154.89 440.24L154.13 439.82L153.35 439.38L152.56 438.9L151.75 438.4L150.92 437.88L85.3 399.41L85.76 399.28L86.21 399.15L86.67 399.02L87.13 398.9L87.58 398.77L88.04 398.65L88.5 398.52L88.95 398.4L89.41 398.27L89.87 398.15L90.32 398.02L90.78 397.9L91.24 397.77L91.69 397.65L92.15 397.53L92.61 397.4L93.06 397.28L93.52 397.16L93.98 397.03L94.43 396.91L94.89 396.79L95.34 396.67L95.8 396.55L96.25 396.42L96.7 396.3L97.16 396.18L98.06 395.94L98.52 395.82L98.97 395.69L99.42 395.57L99.87 395.45L100.32 395.33L100.77 395.21L101.22 395.09L101.67 394.97L102.12 394.85L102.57 394.73L103.02 394.61L103.46 394.49L104.48 394.17L105.47 393.81L106.41 393.4L107.33 392.95L108.2 392.45L109.05 391.91L109.86 391.34L110.63 390.72L111.38 390.08L112.1 389.4L112.37 389.12L112.36 389.12L112.87 388.59L113.36 388.06L113.74 387.61L113.92 387.4L114.16 387.1L114.68 386.44L115.25 385.65L115.81 384.84L116.34 384.01L116.84 383.18L117.33 382.34L117.79 381.49L118.23 380.64L118.65 379.79L119.05 378.93L119.44 378.09L119.8 377.24L120.16 376.41L120.49 375.59L120.81 374.78L121.12 373.99L121.41 373.21L121.7 372.46L121.97 371.73L122.23 371.02L122.49 370.35L122.73 369.7L122.97 369.09L123.2 368.51L123.42 367.97L123.64 367.47L123.68 367.4L123.7 367.35L123.86 367.02L123.86 367.02L123.86 367.02L206.61 367.02L206.61 367.02L206.62 367.02Z" id="a3uSk9OVko"></path><path d="M205.53 367.62L205.16 367.81L204.8 368.01L204.43 368.2L204.07 368.39L203.7 368.59L203.33 368.77L202.97 368.96L202.6 369.15L202.23 369.33L201.86 369.52L201.49 369.7L201.12 369.88L200.75 370.06L200.38 370.24L200.01 370.42L199.64 370.59L199.26 370.76L198.89 370.94L198.52 371.11L198.14 371.28L197.77 371.44L197.39 371.61L197.01 371.77L196.64 371.94L196.26 372.1L195.88 372.26L195.5 372.42L195.12 372.57L194.74 372.73L194.36 372.88L193.98 373.03L193.6 373.18L193.21 373.33L192.83 373.48L192.45 373.62L192.06 373.77L191.68 373.91L191.68 373.91L190.25 374.43L188.84 374.92L187.45 375.39L186.07 375.83L184.7 376.24L183.35 376.63L182.01 376.99L180.68 377.32L179.35 377.63L178.04 377.91L176.74 378.16L175.44 378.39L174.15 378.59L172.87 378.76L171.59 378.91L170.31 379.03L169.04 379.12L167.77 379.19L166.5 379.23L165.24 379.24L163.97 379.23L162.7 379.19L161.44 379.12L160.16 379.03L158.89 378.91L157.61 378.76L156.33 378.59L155.04 378.39L153.74 378.16L152.43 377.91L151.12 377.63L149.8 377.32L148.47 376.99L147.13 376.63L145.77 376.24L144.41 375.83L143.03 375.39L141.63 374.92L140.23 374.43L138.8 373.91L138.8 373.91L138.42 373.77L138.04 373.62L137.65 373.48L137.27 373.33L136.89 373.18L136.82 373.15L136.69 373.1L136.48 373.02L136.33 372.97L136.19 372.91L135.98 372.83L136.01 372.83L135.75 372.73L135.37 372.57L134.99 372.42L134.62 372.26L134.24 372.1L133.86 371.94L133.48 371.77L133.11 371.61L132.73 371.44L132.35 371.28L131.98 371.11L131.6 370.94L131.23 370.77L130.86 370.59L130.48 370.42L130.11 370.24L129.74 370.06L129.37 369.88L128.99 369.7L128.62 369.52L128.25 369.34L127.88 369.15L127.52 368.96L127.15 368.78L126.78 368.59L126.41 368.4L126.05 368.2L125.68 368.01L125.31 367.81L124.95 367.62L124.59 367.42L124.22 367.22L123.86 367.02L122.04 365.97L120.24 364.86L118.44 363.67L116.66 362.42L114.88 361.11L113.12 359.72L111.37 358.27L109.62 356.75L107.89 355.16L106.17 353.5L104.46 351.78L102.77 349.99L101.08 348.13L99.4 346.2L97.74 344.2L96.08 342.14L94.44 340.01L92.81 337.81L91.18 335.55L89.57 333.21L87.97 330.81L86.38 328.34L84.8 325.8L83.24 323.2L81.68 320.53L80.13 317.79L78.6 314.98L77.07 312.1L75.56 309.16L74.06 306.15L72.56 303.07L71.08 299.93L69.61 296.71L68.15 293.43L66.71 290.08L65.27 286.66L63.84 283.18L62.43 279.63L61.02 276.01L59.63 272.32L59.63 240.02L62.74 239.74L65.68 239.36L68.45 238.87L71.07 238.3L73.52 237.64L75.84 236.9L78.02 236.1L80.07 235.22L81.99 234.29L83.81 233.3L85.52 232.27L87.14 231.2L88.66 230.1L90.11 228.97L91.48 227.82L92.79 226.66L94.04 225.49L95.25 224.33L96.41 223.17L97.54 222.02L98.64 220.89L99.73 219.79L100.81 218.72L101.89 217.7L102.97 216.71L104.07 215.78L105.19 214.91L106.35 214.11L107.54 213.38L108.78 212.72L110.07 212.16L111.43 211.68L112.86 211.3L114.37 211.03L115.96 210.87L117.65 210.83L119.44 210.91L121.35 211.12L123.37 211.48L125.52 211.97L127.2 212.41L128.83 212.83L130.41 213.24L131.94 213.64L133.43 214.03L134.86 214.41L136.25 214.78L137.6 215.14L138.9 215.48L140.16 215.82L141.38 216.14L142.56 216.46L143.7 216.76L144.81 217.05L145.88 217.33L146.92 217.6L147.93 217.86L148.9 218.11L149.85 218.35L150.76 218.57L151.65 218.79L152.52 218.99L153.36 219.19L154.18 219.37L154.97 219.54L155.75 219.7L156.5 219.85L157.24 219.99L157.97 220.11L158.67 220.23L159.37 220.34L160.05 220.43L160.72 220.51L161.39 220.58L162.04 220.64L162.69 220.69L163.33 220.73L163.97 220.76L164.61 220.78L165.24 220.78L165.88 220.78L166.52 220.76L167.16 220.73L167.8 220.69L168.45 220.64L169.11 220.58L169.77 220.51L170.44 220.43L171.13 220.34L171.82 220.23L172.53 220.11L173.26 219.99L174 219.85L174.75 219.7L175.53 219.54L176.32 219.37L177.14 219.19L177.98 218.99L178.84 218.79L179.73 218.57L180.65 218.35L181.59 218.11L182.57 217.86L183.57 217.6L184.61 217.33L185.68 217.05L186.79 216.76L187.93 216.46L189.11 216.15L190.33 215.82L191.59 215.48L192.89 215.14L194.23 214.78L195.62 214.41L197.05 214.03L198.54 213.64L200.07 213.24L201.65 212.83L203.28 212.41L204.96 211.97L207.11 211.48L209.13 211.12L211.04 210.91L212.83 210.83L214.52 210.87L216.11 211.03L217.62 211.3L219.05 211.68L220.41 212.16L221.71 212.72L222.95 213.38L224.14 214.11L225.3 214.91L226.42 215.78L227.52 216.71L228.61 217.7L229.69 218.72L230.77 219.79L231.85 220.89L232.96 222.02L234.09 223.17L235.25 224.33L236.46 225.49L237.71 226.66L239.02 227.82L240.39 228.97L241.84 230.1L243.36 231.2L244.98 232.27L246.69 233.3L248.49 234.28L248.52 234.3L250.43 235.22L252.36 236.04L252.58 236.14L254.6 236.88L254.78 236.95L256.84 237.6L257.02 237.66L259.23 238.25L259.64 238.35L261.99 238.86L262.17 238.9L264.54 239.31L264.95 239.38L267.52 239.71L268.05 239.77L270.85 240.02L270.85 272.32L270.8 274.84L270.65 277.39L270.39 279.96L270.04 282.55L269.59 285.16L269.05 287.79L268.41 290.42L267.68 293.07L266.86 295.72L265.95 298.38L264.96 301.04L263.88 303.7L262.72 306.35L261.47 309L260.15 311.64L258.75 314.27L257.28 316.89L255.73 319.48L254.11 322.06L252.42 324.62L250.67 327.15L248.84 329.65L246.95 332.13L245 334.57L242.98 336.97L240.91 339.34L238.78 341.67L236.59 343.95L234.35 346.19L232.05 348.38L229.71 350.52L227.31 352.6L224.87 354.63L222.39 356.6L219.86 358.5L217.29 360.35L214.67 362.12L212.02 363.83L209.34 365.46L206.62 367.02L206.25 367.22L205.89 367.42L205.53 367.62Z" id="b2BhQaPok1"></path><path d="M215.88 416.58C250.05 426.2 283.42 439.98 283.42 489.05C283.42 490.22 283.42 496.08 283.42 506.63L283.42 508.29C295.9 508.29 302.84 508.29 304.22 508.29C306.1 508.29 307.84 507.66 309.23 506.63C311.38 505.07 312.72 502.56 312.72 499.74C312.72 496.96 312.72 474.66 312.72 471.88C312.72 422.76 279.35 409.02 245.18 399.41C239.32 402.84 221.74 413.15 215.88 416.58Z" id="eS07m13eE"></path><path d="M575.81 202.38L575.81 202.38L575.81 202.38L576.99 207.32L578 212.41L578.84 217.64L578.84 217.64L578.87 217.81L579.51 223.02L579.99 228.54L580.28 234.21L580.38 240.02L580.38 240.02L483.58 262.21L369.1 240.02L369.2 234.21L369.49 228.54L369.97 223.02L370.64 217.64L371.48 212.41L372.49 207.32L373.67 202.38L375.02 197.59L376.53 192.94L378.18 188.43L379.99 184.07L381.94 179.86L384.03 175.79L386.25 171.86L388.6 168.08L391.08 164.45L393.67 160.96L396.38 157.62L399.2 154.42L402.12 151.37L405.14 148.47L408.25 145.71L411.45 143.09L414.74 140.62L418.1 138.3L421.54 136.12L425.05 134.09L428.63 132.2L432.26 130.46L435.95 128.87L439.68 127.42L443.46 126.12L447.28 124.96L451.14 123.95L455.02 123.08L458.93 122.36L462.86 121.79L465.59 121.49L465.55 121.47L465.78 121.45L466 121.43L466.23 121.41L466.46 121.38L466.69 121.36L466.92 121.34L467.15 121.32L467.38 121.3L467.61 121.28L467.84 121.26L468.07 121.25L468.3 121.23L468.52 121.21L468.75 121.19L468.98 121.18L469.21 121.16L469.44 121.15L469.67 121.13L469.9 121.12L470.13 121.11L470.36 121.09L470.59 121.08L470.82 121.07L471.05 121.06L471.28 121.04L471.51 121.03L471.74 121.02L471.97 121.01L472.2 121L472.43 121L472.66 120.99L472.89 120.98L473.12 120.97L473.35 120.97L473.58 120.96L473.8 120.95L474.03 120.95L474.26 120.94L474.49 120.94L474.72 120.94L478.68 121.07L482.64 121.36L486.58 121.78L490.51 122.36L494.43 123.08L498.31 123.94L502.17 124.96L505.99 126.11L509.78 127.42L513.51 128.87L517.2 130.46L520.84 132.2L524.41 134.09L527.92 136.12L531.37 138.3L534.73 140.62L538.02 143.09L541.22 145.71L544.34 148.47L547.36 151.37L550.28 154.42L553.1 157.62L555.81 160.96L558.4 164.45L560.88 168.08L563.23 171.86L565.45 175.79L567.54 179.85L569.49 184.07L571.3 188.43L572.96 192.93L572.96 192.94L574.46 197.59L575.81 202.38Z" id="a3ETj2EzwW"></path><path d="M579.63 407.88L582 408.92L584.33 410.02L586.61 411.16L588.86 412.36L591.06 413.61L593.21 414.92L595.31 416.3L597.35 417.74L599.34 419.25L601.27 420.83L603.13 422.48L604.92 424.21L606.65 426.02L606.65 426.02L608.3 427.92L609.87 429.9L610.52 430.8L611.37 431.96L611.46 432.11L612.78 434.12L614.11 436.38L615.34 438.73L615.79 439.68L616.49 441.18L616.58 441.41L617.54 443.74L618.5 446.4L619.35 449.17L620.1 452.06L620.74 455.05L621.28 458.17L621.7 461.41L621.89 463.59L622 464.77L622.18 468.26L622.25 471.88L622.25 499.74L622.24 499.95L622.24 500.16L622.22 500.37L622.21 500.58L622.18 500.78L622.15 500.99L622.15 500.99L622.12 501.19L622.08 501.39L622.08 501.39L622.04 501.59L622.04 501.59L622 501.79L622 501.79L621.94 501.98L621.89 502.18L621.89 502.18L621.83 502.37L621.83 502.37L621.76 502.56L621.76 502.56L621.69 502.75L621.62 502.93L621.54 503.12L621.46 503.3L621.38 503.48L621.37 503.48L621.28 503.66L621.28 503.66L621.19 503.83L621.19 503.83L621.09 504L621.09 504.01L620.99 504.17L620.88 504.34L620.77 504.51L620.66 504.67L620.66 504.67L620.54 504.83L620.42 504.99L620.42 504.99L620.3 505.14L620.17 505.29L620.17 505.29L620.04 505.44L619.91 505.59L619.77 505.73L619.77 505.73L619.63 505.87L619.63 505.87L619.48 506L619.33 506.13L619.18 506.26L619.03 506.39L618.87 506.51L618.71 506.63L618.61 506.71L618.5 506.78L618.39 506.86L618.29 506.93L618.18 507L618.07 507.07L617.95 507.13L617.84 507.2L617.72 507.26L617.61 507.32L617.49 507.39L617.37 507.44L617.25 507.5L617.13 507.56L617.01 507.61L616.89 507.66L616.77 507.71L616.64 507.76L616.52 507.8L616.39 507.85L616.27 507.89L616.14 507.93L616.01 507.97L615.88 508L615.75 508.04L615.62 508.07L615.48 508.1L615.35 508.12L615.22 508.15L615.08 508.17L614.95 508.19L614.81 508.21L614.68 508.23L614.54 508.25L614.4 508.26L614.26 508.27L614.12 508.28L613.98 508.28L613.84 508.29L613.7 508.29L335.73 508.29L335.59 508.29L335.45 508.28L335.31 508.28L335.18 508.27L335.04 508.26L334.9 508.25L334.76 508.23L334.63 508.21L334.49 508.19L334.36 508.17L334.23 508.15L334.09 508.12L333.96 508.1L333.83 508.07L333.7 508.04L333.57 508L333.44 507.97L333.31 507.93L333.19 507.89L333.06 507.85L332.94 507.8L332.81 507.76L332.69 507.71L332.56 507.66L332.44 507.61L332.32 507.56L332.2 507.5L332.08 507.44L331.96 507.39L331.85 507.32L331.73 507.26L331.61 507.2L331.5 507.13L331.39 507.07L331.27 507L331.16 506.93L331.05 506.86L330.94 506.78L330.83 506.71L330.72 506.63L330.57 506.51L330.41 506.39L330.26 506.26L330.12 506.14L329.97 506L329.83 505.87L329.69 505.73L329.55 505.59L329.42 505.44L329.29 505.29L329.17 505.14L329.04 504.99L328.92 504.83L328.81 504.67L328.7 504.51L328.59 504.34L328.48 504.18L328.38 504.01L328.28 503.83L328.19 503.66L328.1 503.48L328.02 503.3L327.93 503.12L327.86 502.94L327.78 502.75L327.72 502.56L327.65 502.37L327.59 502.18L327.54 501.98L327.48 501.79L327.44 501.59L327.4 501.39L327.36 501.19L327.33 500.99L327.3 500.78L327.28 500.58L327.26 500.37L327.24 500.16L327.24 499.95L327.23 499.74L327.23 471.88L327.3 468.26L327.48 464.77L327.78 461.41L328.2 458.17L328.74 455.05L329.38 452.06L330.13 449.17L330.98 446.4L331.93 443.74L332.98 441.18L334.13 438.73L335.37 436.38L336.69 434.12L338.1 431.96L339.6 429.9L341.17 427.92L342.82 426.02L344.54 424.21L346.33 422.48L348.19 420.83L350.12 419.25L352.1 417.74L354.14 416.3L356.24 414.92L358.39 413.61L360.59 412.36L362.83 411.16L365.12 410.02L367.45 408.92L369.81 407.88L372.21 406.88L374.63 405.92L377.09 405L379.57 404.12L382.07 403.27L384.58 402.45L387.12 401.65L389.66 400.88L392.22 400.14L394.78 399.41L554.65 399.41L557.22 400.14L559.77 400.88L562.32 401.65L564.85 402.45L567.37 403.27L569.87 404.12L572.35 405L574.81 405.92L577.24 406.88L577.24 406.88L579.63 407.88Z" id="b3NC7Flst"></path><path d="M516.57 367.97L516.79 368.51L517.02 369.09L517.25 369.7L517.5 370.35L517.75 371.02L518.01 371.73L518.28 372.46L518.56 373.21L518.85 373.99L519.16 374.78L519.48 375.59L519.81 376.41L520.16 377.24L520.53 378.09L520.91 378.93L521.31 379.79L521.73 380.64L522.17 381.49L522.63 382.34L523.12 383.18L523.62 384.01L524.15 384.84L524.7 385.65L525.28 386.44L525.88 387.21L526.51 387.97L527.17 388.7L527.86 389.4L528.57 390.08L529.32 390.72L530.1 391.33L530.91 391.91L531.75 392.45L532.63 392.95L532.63 392.95L533.54 393.4L534.49 393.81L535.47 394.17L536.49 394.49L536.94 394.61L537.39 394.73L537.83 394.85L538.28 394.97L538.73 395.09L539.18 395.21L539.63 395.33L540.08 395.45L540.53 395.57L540.98 395.69L541.44 395.82L541.89 395.94L542.34 396.06L542.8 396.18L543.25 396.3L543.7 396.42L544.16 396.55L544.61 396.67L545.07 396.79L545.52 396.91L545.98 397.03L546.43 397.16L546.89 397.28L547.35 397.4L547.8 397.53L548.26 397.65L548.72 397.77L549.17 397.9L549.63 398.02L550.09 398.15L550.54 398.27L551 398.4L551.46 398.52L551.91 398.65L552.37 398.77L552.83 398.9L553.28 399.02L553.74 399.15L554.2 399.28L554.65 399.41L489.08 437.88L488.25 438.4L487.44 438.9L486.65 439.38L485.87 439.82L485.1 440.24L484.35 440.63L483.61 441L482.89 441.33L482.17 441.65L481.46 441.93L480.77 442.19L480.08 442.41L479.39 442.62L478.72 442.79L478.05 442.94L477.38 443.06L476.72 443.16L476.06 443.23L475.4 443.27L474.74 443.28L474.08 443.27L473.42 443.23L472.76 443.16L472.1 443.06L471.43 442.94L470.76 442.79L470.09 442.62L469.4 442.41L468.71 442.19L468.02 441.93L467.31 441.65L466.59 441.33L465.87 441L465.13 440.63L464.38 440.24L463.61 439.82L462.83 439.38L462.04 438.9L461.23 438.4L460.4 437.88L394.78 399.41L395.24 399.28L395.7 399.15L396.16 399.02L396.62 398.9L397.08 398.77L397.53 398.65L397.99 398.52L398.45 398.4L398.91 398.27L399.37 398.15L399.82 398.02L400.28 397.9L400.74 397.77L401.19 397.65L401.65 397.53L402.11 397.4L402.56 397.28L403.02 397.16L403.47 397.03L403.93 396.91L404.38 396.79L404.84 396.67L405.29 396.55L405.74 396.42L406.2 396.3L406.65 396.18L407.55 395.94L408 395.82L408.46 395.69L408.91 395.57L409.36 395.45L409.81 395.33L410.26 395.21L410.7 395.09L411.15 394.97L411.6 394.85L412.05 394.73L412.49 394.61L412.94 394.49L413.97 394.17L414.95 393.81L415.9 393.4L416.82 392.95L417.7 392.45L418.54 391.91L419.35 391.34L420.13 390.72L420.88 390.08L421.6 389.4L422.26 388.73L422.3 388.68L422.95 387.97L423.58 387.22L423.59 387.21L424.19 386.44L424.77 385.65L425.31 384.85L425.33 384.82L425.85 384.01L426.33 383.23L426.41 383.08L426.76 382.48L426.9 382.23L427.18 381.72L427.3 381.49L427.53 381.04L427.64 380.83L427.94 380.23L428.25 379.6L428.54 378.97L428.83 378.34L429.11 377.72L429.37 377.1L429.63 376.48L429.88 375.87L430.12 375.26L430.36 374.67L430.58 374.08L430.8 373.5L431.02 372.94L431.22 372.38L431.42 371.84L431.62 371.31L431.81 370.8L431.99 370.3L432.17 369.82L432.35 369.36L432.52 368.92L432.69 368.5L432.86 368.09L433.02 367.71L433.18 367.35L433.34 367.02L433.34 367.02L433.34 367.02L516.14 367.02L516.35 367.47L516.57 367.97Z" id="bunD1OMWD"></path><path d="M472.21 379.19L470.94 379.12L469.66 379.03L468.39 378.91L467.11 378.76L465.83 378.59L464.54 378.39L463.24 378.16L461.93 377.91L460.62 377.63L459.3 377.32L457.96 376.99L456.62 376.63L455.27 376.24L453.9 375.83L452.52 375.39L451.12 374.92L449.71 374.43L448.28 373.91L448.21 373.88L447.9 373.77L447.52 373.62L447.14 373.48L446.75 373.33L446.37 373.18L446.34 373.17L446.31 373.16L446.17 373.1L445.95 373.02L445.81 372.97L445.67 372.91L445.46 372.83L445.49 372.83L445.23 372.73L444.85 372.57L444.47 372.42L444.1 372.26L443.72 372.1L443.34 371.94L442.96 371.77L442.59 371.61L442.21 371.44L441.83 371.28L441.46 371.11L441.08 370.94L440.71 370.77L440.34 370.59L439.96 370.42L439.59 370.24L439.22 370.06L438.85 369.88L438.47 369.7L438.1 369.52L437.73 369.34L437.36 369.15L437 368.96L436.63 368.78L436.26 368.59L435.89 368.4L435.53 368.2L435.16 368.01L434.8 367.81L434.43 367.62L434.07 367.42L433.7 367.22L433.34 367.02L431.52 365.97L429.72 364.86L427.92 363.67L426.14 362.42L424.36 361.11L422.6 359.72L420.85 358.27L419.1 356.75L417.37 355.16L415.65 353.5L413.95 351.78L412.25 349.99L410.56 348.13L408.88 346.2L407.22 344.2L405.56 342.14L403.92 340.01L402.29 337.81L400.66 335.55L399.05 333.21L397.45 330.81L395.86 328.34L394.28 325.8L392.72 323.2L391.16 320.53L389.61 317.79L388.08 314.98L386.55 312.1L385.04 309.16L383.54 306.15L382.05 303.07L380.56 299.93L379.09 296.71L377.64 293.43L376.19 290.08L374.75 286.66L373.32 283.18L371.91 279.63L370.5 276.01L369.11 272.32L369.11 240.02L372.22 239.74L375.16 239.36L377.94 238.87L380.55 238.3L383.01 237.64L385.32 236.9L387.5 236.1L389.55 235.22L391.48 234.29L393.29 233.3L395 232.27L396.62 231.2L398.14 230.1L399.59 228.97L400.96 227.82L402.27 226.66L403.52 225.49L404.73 224.33L405.89 223.17L407.02 222.02L408.12 220.89L409.21 219.79L410.29 218.72L411.37 217.7L412.45 216.71L413.55 215.78L414.67 214.91L415.83 214.11L417.02 213.38L418.26 212.72L419.56 212.16L420.91 211.68L422.34 211.3L423.85 211.03L425.44 210.87L427.13 210.83L428.92 210.91L430.83 211.12L432.85 211.48L435 211.97L436.68 212.41L438.31 212.83L439.89 213.24L441.43 213.64L442.91 214.03L444.34 214.41L445.73 214.78L447.08 215.14L448.38 215.48L449.64 215.82L450.86 216.14L452.04 216.46L453.18 216.76L454.29 217.05L455.36 217.33L456.4 217.6L457.41 217.86L458.38 218.11L459.33 218.35L460.24 218.57L461.13 218.79L462 218.99L462.84 219.19L463.66 219.37L464.45 219.54L465.23 219.7L465.98 219.85L466.72 219.99L467.45 220.11L468.16 220.23L468.85 220.34L469.53 220.43L470.21 220.51L470.87 220.58L471.52 220.64L472.17 220.69L472.81 220.73L473.45 220.76L474.09 220.78L474.72 220.78L475.36 220.78L476 220.76L476.64 220.73L477.28 220.69L477.93 220.64L478.59 220.58L479.26 220.51L479.93 220.43L480.61 220.34L481.31 220.23L482.02 220.11L482.75 219.99L483.49 219.85L484.25 219.7L485.02 219.54L485.82 219.37L486.64 219.19L487.48 218.99L488.35 218.79L489.24 218.57L490.15 218.35L491.1 218.11L492.08 217.86L493.08 217.6L494.12 217.33L495.19 217.05L496.3 216.76L497.44 216.46L498.62 216.15L499.84 215.82L501.11 215.48L502.41 215.14L503.75 214.78L505.14 214.41L506.58 214.03L508.06 213.64L509.59 213.24L511.17 212.83L512.8 212.41L514.49 211.97L516.63 211.48L518.65 211.12L520.55 210.91L522.34 210.83L524.03 210.87L525.62 211.03L527.13 211.3L528.55 211.68L529.91 212.16L531.21 212.72L532.45 213.38L533.64 214.11L534.79 214.91L535.91 215.78L537.01 216.71L538.1 217.7L539.18 218.72L540.26 219.79L541.35 220.89L542.45 222.02L543.58 223.17L544.74 224.33L545.95 225.49L547.2 226.66L548.51 227.82L549.88 228.97L551.33 230.1L552.86 231.2L554.47 232.27L556.19 233.3L558 234.28L558.02 234.3L559.93 235.22L561.91 236.06L562.05 236.12L564.14 236.9L564.21 236.92L566.44 237.63L566.49 237.65L568.79 238.26L569.1 238.34L571.53 238.87L571.6 238.88L574.1 239.32L574.45 239.37L577.06 239.71L577.55 239.77L580.38 240.02L580.38 272.32L580.33 274.84L580.17 277.39L579.92 279.96L579.56 282.55L579.11 285.16L578.57 287.79L577.93 290.42L577.2 293.07L576.38 295.72L575.47 298.38L574.47 301.04L573.39 303.7L572.23 306.35L570.99 309L569.67 311.64L568.27 314.27L566.79 316.89L565.24 319.48L563.62 322.06L561.93 324.62L560.17 327.15L558.35 329.65L556.46 332.13L554.5 334.57L552.49 336.97L550.41 339.34L548.28 341.67L546.09 343.95L543.85 346.19L541.56 348.38L539.21 350.52L536.82 352.6L534.38 354.63L531.9 356.6L529.37 358.5L526.8 360.35L524.19 362.12L521.54 363.83L518.86 365.46L516.14 367.02L515.78 367.22L515.41 367.42L515.04 367.62L514.68 367.81L514.31 368.01L513.94 368.2L513.57 368.39L513.2 368.59L512.84 368.77L512.47 368.96L512.1 369.15L511.73 369.33L511.36 369.52L510.99 369.7L510.62 369.88L510.24 370.06L509.87 370.24L509.5 370.42L509.13 370.59L508.76 370.76L508.38 370.94L508.01 371.11L507.63 371.28L507.26 371.44L506.88 371.61L506.51 371.77L506.13 371.94L505.76 372.1L505.38 372.26L505 372.42L504.62 372.57L504.24 372.73L503.87 372.88L503.49 373.03L503.11 373.18L502.73 373.33L502.35 373.48L501.96 373.62L501.58 373.77L501.2 373.91L499.77 374.43L498.36 374.92L496.97 375.39L495.58 375.83L494.22 376.24L492.86 376.63L491.52 376.99L490.18 377.32L488.86 377.63L487.55 377.91L486.24 378.16L484.95 378.39L483.66 378.59L482.37 378.76L481.09 378.91L479.82 379.03L478.54 379.12L477.28 379.19L476.01 379.23L474.74 379.24L474.74 379.24L473.47 379.23L472.21 379.19Z" id="bP99R6SYw"></path><path d="M273.25 117.38C285.78 106.54 292.74 100.52 294.13 99.31C303.8 90.94 304.86 76.31 296.49 66.64C288.12 56.96 273.49 55.91 263.82 64.28C257.82 69.46 209.87 110.96 203.87 116.15C197.54 121.73 193.65 129.43 192.89 137.63C192.77 138.58 192.69 139.55 192.69 140.54C192.69 141.53 192.77 142.5 192.89 143.46C193.65 151.66 197.56 159.37 204.02 165.06C210 170.24 257.84 211.63 263.82 216.8C268.2 220.59 273.59 222.45 278.96 222.45C285.45 222.45 291.91 219.73 296.49 214.44C304.86 204.77 303.8 190.14 294.13 181.77C292.74 180.56 285.78 174.54 273.25 163.7C355.05 163.7 400.5 163.7 409.59 163.7C422.38 163.7 432.75 153.33 432.75 140.54C432.75 127.74 422.38 117.38 409.59 117.38C391.41 117.38 345.97 117.38 273.25 117.38Z" id="b1d16kIpC7"></path><path d="M363.6 547.41C351.09 558.6 344.13 564.81 342.74 566.05C333.08 574.69 332.03 589.77 340.41 599.74C344.99 605.19 351.44 607.98 357.92 607.98C363.3 607.98 368.7 606.06 373.08 602.15C379.05 596.82 426.77 554.17 432.74 548.84C440.02 542.35 444.17 533.07 444.12 523.36C444.07 513.75 439.91 504.62 432.7 498.28C426.74 492.94 379.06 450.26 373.1 444.92C363.44 436.27 348.8 437.34 340.42 447.3C332.04 457.26 333.07 472.34 342.73 480.99C344.12 482.24 351.06 488.45 363.57 499.64C281.76 499.64 236.31 499.64 227.22 499.64C214.43 499.64 204.06 510.33 204.06 523.53C204.06 536.72 214.43 547.41 227.22 547.41C245.4 547.41 290.86 547.41 363.6 547.41Z" id="aSl7MVcpk"></path></defs><g><g><g><use xlink:href="#aXEyQDdeE" opacity="1" fill="#6d80aa" fill-opacity="1"></use><g><use xlink:href="#aXEyQDdeE" opacity="1" fill-opacity="0" stroke="#000000" stroke-width="0" stroke-opacity="0"></use></g></g><g><use xlink:href="#bf2zunANq" opacity="1" fill="#22a6fe" fill-opacity="1"></use><g><use xlink:href="#bf2zunANq" opacity="1" fill-opacity="0" stroke="#000000" stroke-width="0" stroke-opacity="0"></use></g></g><g><use xlink:href="#a3uSk9OVko" opacity="1" fill="#fed1a3" fill-opacity="1"></use><g><use xlink:href="#a3uSk9OVko" opacity="1" fill-opacity="0" stroke="#000000" stroke-width="0" stroke-opacity="0"></use></g></g><g><use xlink:href="#b2BhQaPok1" opacity="1" fill="#ffe5c1" fill-opacity="1"></use><g><use xlink:href="#b2BhQaPok1" opacity="1" fill-opacity="0" stroke="#000000" stroke-width="0" stroke-opacity="0"></use></g></g><g><use xlink:href="#eS07m13eE" opacity="1" fill="#22a6fe" fill-opacity="1"></use><g><use xlink:href="#eS07m13eE" opacity="1" fill-opacity="0" stroke="#000000" stroke-width="0" stroke-opacity="0"></use></g></g><g><use xlink:href="#a3ETj2EzwW" opacity="1" fill="#6d80aa" fill-opacity="1"></use><g><use xlink:href="#a3ETj2EzwW" opacity="1" fill-opacity="0" stroke="#000000" stroke-width="0" stroke-opacity="0"></use></g></g><g><use xlink:href="#b3NC7Flst" opacity="1" fill="#8963b4" fill-opacity="1"></use><g><use xlink:href="#b3NC7Flst" opacity="1" fill-opacity="0" stroke="#000000" stroke-width="0" stroke-opacity="0"></use></g></g><g><use xlink:href="#bunD1OMWD" opacity="1" fill="#fed1a3" fill-opacity="1"></use><g><use xlink:href="#bunD1OMWD" opacity="1" fill-opacity="0" stroke="#000000" stroke-width="0" stroke-opacity="0"></use></g></g><g><use xlink:href="#bP99R6SYw" opacity="1" fill="#ffe5c1" fill-opacity="1"></use><g><use xlink:href="#bP99R6SYw" opacity="1" fill-opacity="0" stroke="#000000" stroke-width="0" stroke-opacity="0"></use></g></g><g><use xlink:href="#b1d16kIpC7" opacity="1" fill="#e61e00" fill-opacity="1"></use><g><use xlink:href="#b1d16kIpC7" opacity="1" fill-opacity="0" stroke="#000000" stroke-width="0" stroke-opacity="0"></use></g></g><g><use xlink:href="#aSl7MVcpk" opacity="1" fill="#00f21a" fill-opacity="1"></use><g><use xlink:href="#aSl7MVcpk" opacity="1" fill-opacity="0" stroke="#000000" stroke-width="0" stroke-opacity="0"></use></g></g></g></g></svg>