<?xml version="1.0"?>
<svg xmlns="http://www.w3.org/2000/svg" xmlns:xlink="http://www.w3.org/1999/xlink" version="1.1" id="Capa_1" x="0px" y="0px" viewBox="0 0 448.359 448.359" style="enable-background:new 0 0 448.359 448.359;" xml:space="preserve" width="512px" height="512px" class="hovered-paths"><g><path style="fill:#FFFFFF" d="M442.612,148.163c-4.18-4.702-9.927-7.314-16.196-7.314h-20.376l6.792-43.363  c1.045-6.269-1.045-12.539-4.702-16.718c-4.18-4.702-9.927-7.314-15.673-7.314H359.02l6.792-42.318  c1.045-6.269-1.045-12.539-4.702-16.718c-4.18-4.702-9.927-7.314-15.673-7.314H101.453c-6.269,0-12.016,2.612-15.673,7.314  c-4.18,4.702-5.747,10.971-4.702,16.718l6.792,41.796H55.478c-6.269,0-12.016,2.612-15.673,7.314  c-4.18,4.702-5.747,10.971-4.702,16.718l6.792,42.841H20.996c-6.269,0-12.016,2.612-16.196,7.314  c-3.657,4.18-5.224,9.927-4.702,15.673l24.033,250.253v0.522c2.09,15.673,15.673,27.69,31.347,27.69H392.98  c16.718,0,30.302-12.539,31.347-28.212l24.033-250.253C447.837,158.612,446.269,152.865,442.612,148.163z M113.469,38.449h219.429  l-5.224,35.004H119.216L113.469,38.449z M66.971,104.8h312.947l-5.747,36.049H72.718L66.971,104.8z M391.935,411.478  L391.935,411.478H54.433l-0.522-0.522L30.922,172.196H414.4L391.935,411.478z" data-original="#1185E0" class="" data-old_color="#1185E0"/><path style="fill:#E3E9ED" d="M289.012,270.939H157.355c-8.882,0-15.673-6.792-15.673-15.673c0-8.882,6.792-15.673,15.673-15.673  h131.657c8.882,0,15.673,6.792,15.673,15.673C304.686,264.147,297.894,270.939,289.012,270.939z" data-original="#4DCFE0" class="hovered-path active-path" data-old_color="#4DCFE0"/></g> </svg>
