<?xml version="1.0" encoding="UTF-8" standalone="no"?>
<!DOCTYPE svg PUBLIC "-//W3C//DTD SVG 1.1//EN" "http://www.w3.org/Graphics/SVG/1.1/DTD/svg11.dtd">
<svg version="1.1" xmlns="http://www.w3.org/2000/svg" xmlns:xlink="http://www.w3.org/1999/xlink" preserveAspectRatio="xMidYMid meet" viewBox="0 0 640 640" width="20" height="20"><defs><path d="M584.05 181.87C580.04 177.86 575.43 175.86 570.21 175.86C565 175.86 560.39 177.86 556.38 181.87C540.62 197.63 461.83 276.42 320 418.24C178.18 276.42 99.39 197.64 83.63 181.88C79.62 177.86 75.01 175.86 69.8 175.86C64.59 175.86 59.97 177.86 55.96 181.88C52.96 184.88 28.91 208.94 25.9 211.95C21.88 215.95 19.88 220.57 19.88 225.78C19.88 230.99 21.89 235.6 25.9 239.61C53.93 267.64 278.14 491.86 306.17 519.89C310.18 523.9 314.79 525.9 320 525.9C325.21 525.9 329.82 523.9 333.83 519.89C361.86 491.86 586.09 267.64 614.12 239.61C618.13 235.6 620.12 230.99 620.12 225.78C620.12 220.57 618.13 215.95 614.12 211.94C608.11 205.93 587.06 184.88 584.05 181.87Z" id="a3f4xfSTYi"></path></defs><g><g><g><use xlink:href="#a3f4xfSTYi" opacity="1" fill="#ffffff" fill-opacity="1"></use><g><use xlink:href="#a3f4xfSTYi" opacity="1" fill-opacity="0" stroke="#000000" stroke-width="1" stroke-opacity="0"></use></g></g></g></g></svg>