<?xml version="1.0"?>
<svg xmlns="http://www.w3.org/2000/svg" xmlns:xlink="http://www.w3.org/1999/xlink" id="Capa_1" style="enable-background:new 0 0 486.025 486.025;" viewBox="0 0 486.025 486.025" x="0px" y="0px" width="512px" height="512px" xml:space="preserve" version="1.1"><g><g>
	<g>
		<path class="active-path" d="M 420.725 85.413 c -42.1 -42.1 -98.1 -65.3 -157.6 -65.3 c -60.6 0 -117.3 23.9 -159.6 67.3 c -4.6 4.7 -4.5 12.3 0.2 17 c 4.7 4.6 12.3 4.5 17 -0.2 c 37.8 -38.7 88.3 -60 142.4 -60 c 109.7 -0.1 198.9 89.1 198.9 198.8 s -89.2 198.9 -198.9 198.9 s -198.9 -89.2 -198.9 -198.9 v -2.5 l 19.8 19.8 c 2.3 2.3 5.4 3.5 8.5 3.5 s 6.1 -1.2 8.5 -3.5 c 4.7 -4.7 4.7 -12.3 0 -17 l -40.2 -40.3 c -4.7 -4.7 -12.3 -4.7 -17 0 l -40.3 40.3 c -4.7 4.7 -4.7 12.3 0 17 c 2.3 2.3 5.4 3.5 8.5 3.5 s 6.1 -1.2 8.5 -3.5 l 19.8 -19.8 v 2.5 c 0 59.5 23.2 115.5 65.3 157.6 s 98.1 65.3 157.6 65.3 s 115.5 -23.2 157.6 -65.3 s 65.2 -98.1 65.2 -157.6 S 462.825 127.513 420.725 85.413 Z" data-original="#000000" data-old_color="#000000" fill="rgba(255, 255, 255, 0.7)"/>
		<path class="active-path" d="M 263.125 113.413 c -39 0 -70.7 31.7 -70.7 70.7 v 34.1 h -22 c -6.6 0 -12 5.4 -12 12 v 119.7 c 0 6.6 5.4 12 12 12 h 185.5 c 6.6 0 12 -5.4 12 -12 v -119.6 c 0 -6.6 -5.4 -12 -12 -12 h -22 v -34.1 C 333.925 145.213 302.125 113.413 263.125 113.413 Z M 216.425 184.213 c 0 -25.8 21 -46.7 46.7 -46.7 s 46.7 21 46.7 46.7 v 34.1 h -93.4 L 216.425 184.213 L 216.425 184.213 Z M 343.925 337.913 h -161.5 v -95.7 h 161.5 V 337.913 Z" data-original="#000000" data-old_color="#000000" fill="#fafaff"/>
	</g>
</g></g> </svg>
