<svg xmlns="http://www.w3.org/2000/svg" height="512" width="512"><path d="M40 304h432v32H40z" fill="#2b93cb"/><path d="M80 24h352v200H80z" fill="#216ead"/><path d="M56 224h400v32H56z" fill="#2b93cb"/><path d="m240 392v-24l-24-80h-80l-24 80v24a16 16 0 0 0 16 16h96a16 16 0 0 0 16-16z" fill="#eeba2b"/><path d="m160 312h32v16h-32z" fill="#914c0e"/><path d="M128 408l8 80h16l8-80zm64 0l8 80h16l8-80zm96 0l8 80h16l8-80zm64 0l8 80h16l8-80z" fill="#c77708"/><path d="m400 392v-24l-24-80h-80l-24 80v24a16 16 0 0 0 16 16h96a16 16 0 0 0 16-16z" fill="#eeba2b"/><path d="m320 312h32v16h-32z" fill="#914c0e"/><path d="M88 336L72 488H56V336zm336 0l16 152h16V336z" fill="#216ead"/><path d="m144 184h64v40h-64z" fill="#5ab9e6"/></svg>