<svg xmlns="http://www.w3.org/2000/svg" width="466" height="475" stroke="none" stroke-linecap="round" stroke-linejoin="round" fill="#fff" fill-rule="nonzero"><path d="M358 249l-5 40H129l-4-40c-3-21 1-42 9-62 7-17 11-36 10-54l-2-28c-1-37 17-71 48-90 32-19 71-19 102 0s50 53 48 90l-1 28c-1 18 2 37 9 54 9 20 12 41 10 62z" fill="#8f4d2e"/><path d="M357 249l-2 24h-90v-88l16-32V89c0-40-27-74-65-85 30-8 63-1 87 19 25 20 38 50 37 82l-2 28c-1 18 3 37 10 54 8 20 11 41 9 62z" fill="#82462a"/><path d="M284 257c-3 0-6-1-8-3s-3-5-3-8v-53h-64v53c0 3-1 6-3 8s-5 3-8 3h-13v48h112v-48z" fill="#fec9a3"/><path d="M246 233c10 0 19-4 27-10v-30h-64v30c8 6 17 10 27 10z" fill="#feb784"/><path d="M313 105v40c0 40-32 72-72 72s-72-32-72-72v-40c16-10 28-25 37-42l3-6 5 4c19 16 42 29 67 37 10 3 21 5 32 7z" fill="#fec9a3"/><path d="M313 105v40c0 35-24 64-58 71 17-17 26-39 26-63V98c11 3 21 6 32 7z" fill="#fec093"/><path d="M205 137c-7 0-12-5-12-12s5-12 12-12 12 5 12 12-5 12-12 12zm72 0c-7 0-12-5-12-12s5-12 12-12 12 5 12 12-5 12-12 12z" fill="#7a432a"/><path d="M241 177c-13 0-24-11-24-24h16c0 4 4 8 8 8s8-4 8-8h16c0 13-11 24-24 24z" fill="#f7a468"/><path d="M201 289h80v56h-80z" fill="#e0e0de"/><path d="M404 465c-12 2-23-5-27-16l-53-100c7 21 3 43-11 60v64H169v-64c-14-17-18-40-11-60l-54 100c-4 12-18 19-30 15-13-4-20-18-16-31l59-146c7-18 25-30 44-30h32l48 88 48-88h31c20 0 38 12 45 30l58 146c2 7 1 14-2 20-4 6-10 11-17 12z" fill="#ec8c8c"/><path d="M51 436l6-75h48v77c0 15-12 27-27 27-8 0-15-3-20-9-5-5-7-13-7-20z" fill="#f59898"/><path d="M76 244c-5 2-9 5-11 9s-1 9 1 14l7 14H44c-7 0-14-2-21-5l-8-4c-3-1-7-1-9 1-3 1-5 4-5 8v22c0 6 3 12 9 15l13 6c7 3 14 5 21 5h61v-48l-11-27c-3-7-11-11-18-10z" fill="#fec9a3"/><path d="M57 329h48v32H57z" fill="#e0e0de"/><path d="M404 464c-11 2-23-4-27-16l-52-99c6 21 2 43-12 60v64H172c66-43 122-98 169-212 11 5 20 14 24 26l58 146c3 7 2 14-2 20s-10 10-17 11z" fill="#e07f7f"/><path d="M353 441l-80-16V313l80 16z" fill="#a36548"/><path d="M385 441l80-16V313l-80 16z" fill="#8f4d2e"/><path d="M353 329h32v112h-32z" fill="#95573a"/><path d="M369 329c0-14-10-26-24-28l-72-12v24l80 16h16c0-14 10-26 24-28l72-12v24l-80 16z" fill="#d4bd81"/><path d="M450 440l-32 6c-2 0-4-1-6-2-2-2-3-4-3-6v-30c0-5 4-9 9-10l27-5c3 0 6 0 8 2 3 2 4 5 4 8v29c0 4-3 8-7 8z" fill="#fec9a3"/></svg>