<svg xmlns="http://www.w3.org/2000/svg" xmlns:xlink="http://www.w3.org/1999/xlink" height="512" width="512"><path d="M34 10h336c13.254 0 24 10.746 24 24v444c0 13.254-10.746 24-24 24H34c-13.254 0-24-10.746-24-24V34c0-13.254 10.746-24 24-24zm0 0" fill="#79b2ff"/><path d="M280.332 50H354v412H50V50h73.668" fill="#fff"/><use xlink:href="#B" fill="#ff6977"/><use xlink:href="#B" fill="#bdd9ff"/><path d="M339.684 260.56L456.852 143.39c10.328-10.328 27.074-10.328 37.402 0s10.328 27.074 0 37.402L377.086 297.96l-67.422 30.016zm0 0" fill="#ffc15a"/><path d="M377.086 297.96l-37.402-37.402-30.02 67.418zm0 0" fill="#98a1b3"/><path d="M481.395 193.652l12.86-12.86c10.328-10.328 10.328-27.074 0-37.402s-27.074-10.328-37.402 0l-12.86 12.855zm0 0" fill="#ff6977"/><path d="M98 130h64v64H98zm0 110h64v64H98zm0 0" fill="#cbe558"/><path d="M98 350h64v64H98zm0 0" fill="#ff6977"/><g fill="#204283"><path d="M202 452a10.08 10.08 0 0 0-10 10 10.08 10.08 0 0 0 10 10 10.08 10.08 0 0 0 10-10 10.08 10.08 0 0 0-10-10zm299.324-315.68c-14.2-14.2-37.332-14.2-51.543 0L404 182.102V34c0-18.746-15.254-34-34-34H34C15.254 0 0 15.254 0 34v444c0 18.746 15.254 34 34 34h336c18.746 0 34-15.254 34-34V285.2l97.324-97.328c14.2-14.2 14.2-37.332 0-51.543zM384 34v168.102l-20 20V50a10 10 0 0 0-10-10h-66.832V20H370a14.02 14.02 0 0 1 14 14zm-54.602 274.246l13.5-30.328 16.828 16.828zM267.168 20v40.75c0 6.203-5.047 11.25-11.25 11.25H148.082c-6.203 0-11.25-5.047-11.25-11.25V20zM370 492H34a14.02 14.02 0 0 1-14-14V34a14.02 14.02 0 0 1 14-14h82.832v20H50a10 10 0 0 0-10 10v412a10 10 0 0 0 10 10h112a10 10 0 1 0 0-20H60V60h56.832v.75c0 17.23 14.02 31.25 31.25 31.25h107.836c17.23 0 31.25-14.02 31.25-31.25V60H344v182.102l-11.4 11.387a10.12 10.12 0 0 0-2.062 3.004L300.53 323.9c-1.684 3.785-.863 8.2 2.063 11.14 1.918 1.914 4.477 2.93 7.074 2.93 1.375 0 2.758-.28 4.066-.863L344 323.64V452H242a10 10 0 1 0 0 20h112c5.52 0 10-4.477 10-10V314.734l17.152-7.637a9.97 9.97 0 0 0 2.848-1.922V478a14.02 14.02 0 0 1-14 14zm79.9-281.008l-72.824 72.828-23.262-23.262 90.168-90.168 23.262 23.262zm37.273-37.27l-5.8 5.785-23.258-23.258 5.785-5.785a16.47 16.47 0 0 1 23.262 0c6.4 6.4 6.4 16.844 0 23.258zm0 0"/><use xlink:href="#C"/><use xlink:href="#C" y="110"/><use xlink:href="#C" y="220"/><path d="M233.578 191.645a9.97 9.97 0 0 0 14.14 0l45.148-45.148c3.902-3.902 3.902-10.234 0-14.14s-10.238-3.906-14.145 0l-38.074 38.074-15.176-15.176c-3.906-3.906-10.234-3.906-14.145 0-3.902 3.906-3.902 10.238 0 14.14zm0 110a10 10 0 0 0 14.141 0l45.148-45.145a10.01 10.01 0 0 0 0-14.145 10.01 10.01 0 0 0-14.145 0l-38.074 38.078-15.176-15.176c-3.906-3.906-10.234-3.906-14.145 0-3.902 3.902-3.902 10.234 0 14.14zm18.52 94.5l15.504 15.5a9.97 9.97 0 0 0 14.14 0 10 10 0 0 0 0-14.141L266.242 382l15.5-15.504a10 10 0 0 0-14.141-14.141l-15.504 15.5-15.5-15.5a10.01 10.01 0 0 0-14.145 0c-3.902 3.906-3.902 10.238 0 14.14L237.957 382l-15.504 15.504c-3.902 3.902-3.902 10.234 0 14.14 1.953 1.953 4.516 2.93 7.074 2.93a9.97 9.97 0 0 0 7.07-2.93zm0 0"/></g><defs ><path id="B" d="M148.082 82h107.832c11.738 0 21.25-9.516 21.25-21.25V10H126.832v50.75c0 11.734 9.516 21.25 21.25 21.25zm0 0"/><path id="C" d="M162 120H98a10 10 0 0 0-10 10v64a10 10 0 0 0 10 10h64a10 10 0 0 0 10-10v-64a10 10 0 0 0-10-10zm-10 64h-44v-44h44zm0 0"/></defs></svg>