<svg xmlns="http://www.w3.org/2000/svg" width="512" height="512"><path d="M256.42 361.215h94.694a10.53 10.53 0 0 0 10.521-10.521V161.306a10.53 10.53 0 0 0-10.521-10.521H256.42c-5.818 0-10.52-4.703-10.52-10.52s4.703-10.522 10.52-10.522h94.694c17.402 0 31.564 14.162 31.564 31.565v189.387c0 17.402-14.162 31.564-31.564 31.564H256.42c-5.818 0-10.52-4.703-10.52-10.52s4.703-10.52 10.52-10.52zM132.457 248.508l63.97-63.13c4.124-4.082 10.795-4.03 14.877.105a10.51 10.51 0 0 1-.105 14.877l-45.716 45.116h122.503c5.818 0 10.52 4.703 10.52 10.52s-4.703 10.522-10.52 10.522H165.484l45.716 45.116c4.145 4.082 4.176 10.738.105 14.877-2.062 2.078-4.777 3.135-7.492 3.135-2.672 0-5.344-1.01-7.386-3.03l-63.97-63.13a10.54 10.54 0 0 1-3.135-7.492c0-2.82 1.126-5.502 3.135-7.5z" fill="#fff"/></svg>