<svg xmlns="http://www.w3.org/2000/svg" xmlns:xlink="http://www.w3.org/1999/xlink" preserveAspectRatio="xMidYMid meet" viewBox="0 0 640 640" width="50" height="50"><style><![CDATA[.E{fill-opacity:0}.F{stroke:#000}.G{fill:#fff}.H{stroke-opacity:0}]]></style><defs><path d="M171.42 121.5l35.44-42.04 157-36.75 32.66 33.67-86 213.72-139.1-168.6z" id="A"/><path d="M88.56 336.1l45.33 91.85 81.13 78.74h39.37L309 290.77l-208.5 3.4-11.93 41.93z" id="B"/><path d="M168.07 115.4L141.05 145l-29.82 19.3-22.67 129.86 220.44-3.4L168.07 115.4z" id="C"/><path d="M142.98 475.2C94.63 426.84 68 362.56 68 294.18s26.63-132.67 74.98-181.02C191.33 64.8 255.62 38.18 324 38.18s132.67 26.62 181.02 74.98C553.37 161.5 580 225.8 580 294.18s-26.63 132.66-74.98 181.02c-48.35 48.35-112.64 74.98-181.02 74.98s-132.67-26.63-181.02-74.98zm21.2-340.83C121.5 177.06 98 233.8 98 294.18c0 60.36 23.5 117.12 66.2 159.8 42.7 42.7 99.44 66.2 159.8 66.2s117.12-23.5 159.8-66.2c42.68-42.68 66.2-99.44 66.2-159.8 0-60.37-23.5-117.12-66.2-159.8-42.7-42.7-99.44-66.2-159.8-66.2s-117.12 23.5-159.8 66.2z" id="D"/><path d="M309 98.2h30v40.03h-30V98.2z" id="E"/><path d="M423.6 173.33l28.3-28.3 21.2 21.2-28.3 28.3-21.2-21.2z" id="F"/><path d="M479.93 279.18h40.03v30h-40.03v-30z" id="G"/><path d="M423.58 415.04l21.2-21.2 28.3 28.3-21.2 21.2-28.3-28.3z" id="H"/><path d="M309 450.1h30v40.03h-30V450.1z" id="I"/><path d="M174.77 422.1l28.3-28.3 21.2 21.2-28.3 28.3-21.2-21.2z" id="J"/><path d="M128.04 279.18h40.03v30h-40.03v-30z" id="K"/><path d="M174.8 166.22L196 145l28.3 28.3-21.2 21.2-28.3-28.3z" id="L"/><path d="M429.9 309.18H309v-120.9h30v90.9h90.9v30z" id="M"/></defs><use xlink:href="#A" opacity=".6" fill="#29963c"/><use xlink:href="#A" opacity=".6" class="E F"/><use xlink:href="#B" opacity=".53" fill="#924c4c"/><use xlink:href="#B" opacity=".53" class="E F"/><use xlink:href="#C" opacity=".74" fill="#ad4040"/><use xlink:href="#C" opacity=".74" class="E F"/><use xlink:href="#D" class="G"/><use xlink:href="#D" class="E F H"/><use xlink:href="#E" class="G"/><use xlink:href="#E" class="E F H"/><use xlink:href="#F" class="G"/><use xlink:href="#F" class="E F H"/><use xlink:href="#G" class="G"/><use xlink:href="#G" class="E F H"/><use xlink:href="#H" class="G"/><use xlink:href="#H" class="E F H"/><use xlink:href="#I" class="G"/><use xlink:href="#I" class="E F H"/><use xlink:href="#J" class="G"/><use xlink:href="#J" class="E F H"/><use xlink:href="#K" class="G"/><use xlink:href="#K" class="E F H"/><use xlink:href="#L" class="G"/><use xlink:href="#L" class="E F H"/><use xlink:href="#M" class="G"/><use xlink:href="#M" class="E F H"/></svg>